<?xml version="1.0" encoding="utf-8" standalone="no"?>
<!DOCTYPE svg PUBLIC "-//W3C//DTD SVG 1.1//EN"
  "http://www.w3.org/Graphics/SVG/1.1/DTD/svg11.dtd">
<!-- Created with matplotlib (http://matplotlib.org/) -->
<svg height="864pt" version="1.1" viewBox="0 0 1152 864" width="1152pt" xmlns="http://www.w3.org/2000/svg" xmlns:xlink="http://www.w3.org/1999/xlink">
 <defs>
  <style type="text/css">
*{stroke-linecap:butt;stroke-linejoin:round;}
  </style>
 </defs>
 <g id="figure_1">
  <g id="patch_1">
   <path d="M 0 864 
L 1152 864 
L 1152 0 
L 0 0 
z
" style="fill:#ffffff;"/>
  </g>
  <g id="axes_1">
   <g id="patch_2">
    <path d="M 127.565 258.52 
L 1129.06 258.52 
L 1129.06 41.44 
L 127.565 41.44 
z
" style="fill:#ffffff;"/>
   </g>
   <g id="patch_3">
    <path clip-path="url(#pd41b95942b)" d="M 173.0875 258.52 
L 182.00991 258.52 
L 182.00991 51.777143 
L 173.0875 51.777143 
z
" style="fill:#0072b2;opacity:0.4;"/>
   </g>
   <g id="patch_4">
    <path clip-path="url(#pd41b95942b)" d="M 182.00991 258.52 
L 190.93232 258.52 
L 190.93232 208.922716 
L 182.00991 208.922716 
z
" style="fill:#0072b2;opacity:0.4;"/>
   </g>
   <g id="patch_5">
    <path clip-path="url(#pd41b95942b)" d="M 190.93232 258.52 
L 199.85473 258.52 
L 199.85473 216.346043 
L 190.93232 216.346043 
z
" style="fill:#0072b2;opacity:0.4;"/>
   </g>
   <g id="patch_6">
    <path clip-path="url(#pd41b95942b)" d="M 199.85473 258.52 
L 208.77714 258.52 
L 208.77714 222.468695 
L 199.85473 222.468695 
z
" style="fill:#0072b2;opacity:0.4;"/>
   </g>
   <g id="patch_7">
    <path clip-path="url(#pd41b95942b)" d="M 208.77714 258.52 
L 217.69955 258.52 
L 217.69955 232.05021 
L 208.77714 232.05021 
z
" style="fill:#0072b2;opacity:0.4;"/>
   </g>
   <g id="patch_8">
    <path clip-path="url(#pd41b95942b)" d="M 217.69955 258.52 
L 226.62196 258.52 
L 226.62196 236.831171 
L 217.69955 236.831171 
z
" style="fill:#0072b2;opacity:0.4;"/>
   </g>
   <g id="patch_9">
    <path clip-path="url(#pd41b95942b)" d="M 226.62196 258.52 
L 235.54437 258.52 
L 235.54437 245.131831 
L 226.62196 245.131831 
z
" style="fill:#0072b2;opacity:0.4;"/>
   </g>
   <g id="patch_10">
    <path clip-path="url(#pd41b95942b)" d="M 235.54437 258.52 
L 244.46678 258.52 
L 244.46678 249.234513 
L 235.54437 249.234513 
z
" style="fill:#0072b2;opacity:0.4;"/>
   </g>
   <g id="patch_11">
    <path clip-path="url(#pd41b95942b)" d="M 244.46678 258.52 
L 253.38919 258.52 
L 253.38919 252.689335 
L 244.46678 252.689335 
z
" style="fill:#0072b2;opacity:0.4;"/>
   </g>
   <g id="patch_12">
    <path clip-path="url(#pd41b95942b)" d="M 253.38919 258.52 
L 262.3116 258.52 
L 262.3116 254.94602 
L 253.38919 254.94602 
z
" style="fill:#0072b2;opacity:0.4;"/>
   </g>
   <g id="patch_13">
    <path clip-path="url(#pd41b95942b)" d="M 262.3116 258.52 
L 271.23401 258.52 
L 271.23401 256.466257 
L 262.3116 256.466257 
z
" style="fill:#0072b2;opacity:0.4;"/>
   </g>
   <g id="patch_14">
    <path clip-path="url(#pd41b95942b)" d="M 271.23401 258.52 
L 280.15642 258.52 
L 280.15642 257.473117 
L 271.23401 257.473117 
z
" style="fill:#0072b2;opacity:0.4;"/>
   </g>
   <g id="patch_15">
    <path clip-path="url(#pd41b95942b)" d="M 280.15642 258.52 
L 289.07883 258.52 
L 289.07883 257.944336 
L 280.15642 257.944336 
z
" style="fill:#0072b2;opacity:0.4;"/>
   </g>
   <g id="patch_16">
    <path clip-path="url(#pd41b95942b)" d="M 289.07883 258.52 
L 298.00124 258.52 
L 298.00124 258.230758 
L 289.07883 258.230758 
z
" style="fill:#0072b2;opacity:0.4;"/>
   </g>
   <g id="patch_17">
    <path clip-path="url(#pd41b95942b)" d="M 298.00124 258.52 
L 306.92365 258.52 
L 306.92365 258.349916 
L 298.00124 258.349916 
z
" style="fill:#0072b2;opacity:0.4;"/>
   </g>
   <g id="patch_18">
    <path clip-path="url(#pd41b95942b)" d="M 306.92365 258.52 
L 315.84606 258.52 
L 315.84606 258.408618 
L 306.92365 258.408618 
z
" style="fill:#0072b2;opacity:0.4;"/>
   </g>
   <g id="patch_19">
    <path clip-path="url(#pd41b95942b)" d="M 315.84606 258.52 
L 324.76847 258.52 
L 324.76847 258.458858 
L 315.84606 258.458858 
z
" style="fill:#0072b2;opacity:0.4;"/>
   </g>
   <g id="patch_20">
    <path clip-path="url(#pd41b95942b)" d="M 324.76847 258.52 
L 333.69088 258.52 
L 333.69088 258.483254 
L 324.76847 258.483254 
z
" style="fill:#0072b2;opacity:0.4;"/>
   </g>
   <g id="patch_21">
    <path clip-path="url(#pd41b95942b)" d="M 333.69088 258.52 
L 342.61329 258.52 
L 342.61329 258.487904 
L 333.69088 258.487904 
z
" style="fill:#0072b2;opacity:0.4;"/>
   </g>
   <g id="patch_22">
    <path clip-path="url(#pd41b95942b)" d="M 342.61329 258.52 
L 351.5357 258.52 
L 351.5357 258.502237 
L 342.61329 258.502237 
z
" style="fill:#0072b2;opacity:0.4;"/>
   </g>
   <g id="patch_23">
    <path clip-path="url(#pd41b95942b)" d="M 351.5357 258.52 
L 360.45811 258.52 
L 360.45811 258.505515 
L 351.5357 258.505515 
z
" style="fill:#0072b2;opacity:0.4;"/>
   </g>
   <g id="patch_24">
    <path clip-path="url(#pd41b95942b)" d="M 360.45811 258.52 
L 369.38052 258.52 
L 369.38052 258.507573 
L 360.45811 258.507573 
z
" style="fill:#0072b2;opacity:0.4;"/>
   </g>
   <g id="patch_25">
    <path clip-path="url(#pd41b95942b)" d="M 369.38052 258.52 
L 378.30293 258.52 
L 378.30293 258.511233 
L 369.38052 258.511233 
z
" style="fill:#0072b2;opacity:0.4;"/>
   </g>
   <g id="patch_26">
    <path clip-path="url(#pd41b95942b)" d="M 378.30293 258.52 
L 387.22534 258.52 
L 387.22534 258.51413 
L 378.30293 258.51413 
z
" style="fill:#0072b2;opacity:0.4;"/>
   </g>
   <g id="patch_27">
    <path clip-path="url(#pd41b95942b)" d="M 387.22534 258.52 
L 396.14775 258.52 
L 396.14775 258.515121 
L 387.22534 258.515121 
z
" style="fill:#0072b2;opacity:0.4;"/>
   </g>
   <g id="patch_28">
    <path clip-path="url(#pd41b95942b)" d="M 396.14775 258.52 
L 405.07016 258.52 
L 405.07016 258.514816 
L 396.14775 258.514816 
z
" style="fill:#0072b2;opacity:0.4;"/>
   </g>
   <g id="patch_29">
    <path clip-path="url(#pd41b95942b)" d="M 405.07016 258.52 
L 413.99257 258.52 
L 413.99257 258.516417 
L 405.07016 258.516417 
z
" style="fill:#0072b2;opacity:0.4;"/>
   </g>
   <g id="patch_30">
    <path clip-path="url(#pd41b95942b)" d="M 413.99257 258.52 
L 422.91498 258.52 
L 422.91498 258.517484 
L 413.99257 258.517484 
z
" style="fill:#0072b2;opacity:0.4;"/>
   </g>
   <g id="patch_31">
    <path clip-path="url(#pd41b95942b)" d="M 422.91498 258.52 
L 431.83739 258.52 
L 431.83739 258.516417 
L 422.91498 258.516417 
z
" style="fill:#0072b2;opacity:0.4;"/>
   </g>
   <g id="patch_32">
    <path clip-path="url(#pd41b95942b)" d="M 431.83739 258.52 
L 440.7598 258.52 
L 440.7598 258.516722 
L 431.83739 258.516722 
z
" style="fill:#0072b2;opacity:0.4;"/>
   </g>
   <g id="patch_33">
    <path clip-path="url(#pd41b95942b)" d="M 440.7598 258.52 
L 449.68221 258.52 
L 449.68221 258.517332 
L 440.7598 258.517332 
z
" style="fill:#0072b2;opacity:0.4;"/>
   </g>
   <g id="patch_34">
    <path clip-path="url(#pd41b95942b)" d="M 449.68221 258.52 
L 458.60462 258.52 
L 458.60462 258.517942 
L 449.68221 258.517942 
z
" style="fill:#0072b2;opacity:0.4;"/>
   </g>
   <g id="patch_35">
    <path clip-path="url(#pd41b95942b)" d="M 458.60462 258.52 
L 467.52703 258.52 
L 467.52703 258.516417 
L 458.60462 258.516417 
z
" style="fill:#0072b2;opacity:0.4;"/>
   </g>
   <g id="patch_36">
    <path clip-path="url(#pd41b95942b)" d="M 467.52703 258.52 
L 476.44944 258.52 
L 476.44944 258.514968 
L 467.52703 258.514968 
z
" style="fill:#0072b2;opacity:0.4;"/>
   </g>
   <g id="patch_37">
    <path clip-path="url(#pd41b95942b)" d="M 476.44944 258.52 
L 485.37185 258.52 
L 485.37185 258.518552 
L 476.44944 258.518552 
z
" style="fill:#0072b2;opacity:0.4;"/>
   </g>
   <g id="patch_38">
    <path clip-path="url(#pd41b95942b)" d="M 485.37185 258.52 
L 494.29426 258.52 
L 494.29426 258.519466 
L 485.37185 258.519466 
z
" style="fill:#0072b2;opacity:0.4;"/>
   </g>
   <g id="patch_39">
    <path clip-path="url(#pd41b95942b)" d="M 494.29426 258.52 
L 503.21667 258.52 
L 503.21667 258.519543 
L 494.29426 258.519543 
z
" style="fill:#0072b2;opacity:0.4;"/>
   </g>
   <g id="patch_40">
    <path clip-path="url(#pd41b95942b)" d="M 503.21667 258.52 
L 512.13908 258.52 
L 512.13908 258.519543 
L 503.21667 258.519543 
z
" style="fill:#0072b2;opacity:0.4;"/>
   </g>
   <g id="patch_41">
    <path clip-path="url(#pd41b95942b)" d="M 512.13908 258.52 
L 521.06149 258.52 
L 521.06149 258.51939 
L 512.13908 258.51939 
z
" style="fill:#0072b2;opacity:0.4;"/>
   </g>
   <g id="patch_42">
    <path clip-path="url(#pd41b95942b)" d="M 521.06149 258.52 
L 529.9839 258.52 
L 529.9839 258.519771 
L 521.06149 258.519771 
z
" style="fill:#0072b2;opacity:0.4;"/>
   </g>
   <g id="patch_43">
    <path clip-path="url(#pd41b95942b)" d="M 529.9839 258.52 
L 538.90631 258.52 
L 538.90631 258.519924 
L 529.9839 258.519924 
z
" style="fill:#0072b2;opacity:0.4;"/>
   </g>
   <g id="patch_44">
    <path clip-path="url(#pd41b95942b)" d="M 538.90631 258.52 
L 547.82872 258.52 
L 547.82872 258.519771 
L 538.90631 258.519771 
z
" style="fill:#0072b2;opacity:0.4;"/>
   </g>
   <g id="patch_45">
    <path clip-path="url(#pd41b95942b)" d="M 547.82872 258.52 
L 556.75113 258.52 
L 556.75113 258.519771 
L 547.82872 258.519771 
z
" style="fill:#0072b2;opacity:0.4;"/>
   </g>
   <g id="patch_46">
    <path clip-path="url(#pd41b95942b)" d="M 556.75113 258.52 
L 565.67354 258.52 
L 565.67354 258.519848 
L 556.75113 258.519848 
z
" style="fill:#0072b2;opacity:0.4;"/>
   </g>
   <g id="patch_47">
    <path clip-path="url(#pd41b95942b)" d="M 565.67354 258.52 
L 574.59595 258.52 
L 574.59595 258.519924 
L 565.67354 258.519924 
z
" style="fill:#0072b2;opacity:0.4;"/>
   </g>
   <g id="patch_48">
    <path clip-path="url(#pd41b95942b)" d="M 574.59595 258.52 
L 583.51836 258.52 
L 583.51836 258.52 
L 574.59595 258.52 
z
" style="fill:#0072b2;opacity:0.4;"/>
   </g>
   <g id="patch_49">
    <path clip-path="url(#pd41b95942b)" d="M 583.51836 258.52 
L 592.44077 258.52 
L 592.44077 258.52 
L 583.51836 258.52 
z
" style="fill:#0072b2;opacity:0.4;"/>
   </g>
   <g id="patch_50">
    <path clip-path="url(#pd41b95942b)" d="M 592.44077 258.52 
L 601.36318 258.52 
L 601.36318 258.52 
L 592.44077 258.52 
z
" style="fill:#0072b2;opacity:0.4;"/>
   </g>
   <g id="patch_51">
    <path clip-path="url(#pd41b95942b)" d="M 601.36318 258.52 
L 610.28559 258.52 
L 610.28559 258.519924 
L 601.36318 258.519924 
z
" style="fill:#0072b2;opacity:0.4;"/>
   </g>
   <g id="patch_52">
    <path clip-path="url(#pd41b95942b)" d="M 610.28559 258.52 
L 619.208 258.52 
L 619.208 258.519924 
L 610.28559 258.519924 
z
" style="fill:#0072b2;opacity:0.4;"/>
   </g>
   <g id="matplotlib.axis_1">
    <g id="ytick_1">
     <g id="line2d_1">
      <defs>
       <path d="M 0 0 
L -3.5 0 
" id="md53e6480f9" style="stroke:#000000;stroke-width:0.8;"/>
      </defs>
      <g>
       <use style="stroke:#000000;stroke-width:0.8;" x="127.565" xlink:href="#md53e6480f9" y="258.52"/>
      </g>
     </g>
     <g id="text_1">
      <!-- 0 -->
      <defs>
       <path d="M 31.78125 66.40625 
Q 24.171875 66.40625 20.328125 58.90625 
Q 16.5 51.421875 16.5 36.375 
Q 16.5 21.390625 20.328125 13.890625 
Q 24.171875 6.390625 31.78125 6.390625 
Q 39.453125 6.390625 43.28125 13.890625 
Q 47.125 21.390625 47.125 36.375 
Q 47.125 51.421875 43.28125 58.90625 
Q 39.453125 66.40625 31.78125 66.40625 
z
M 31.78125 74.21875 
Q 44.046875 74.21875 50.515625 64.515625 
Q 56.984375 54.828125 56.984375 36.375 
Q 56.984375 17.96875 50.515625 8.265625 
Q 44.046875 -1.421875 31.78125 -1.421875 
Q 19.53125 -1.421875 13.0625 8.265625 
Q 6.59375 17.96875 6.59375 36.375 
Q 6.59375 54.828125 13.0625 64.515625 
Q 19.53125 74.21875 31.78125 74.21875 
z
" id="DejaVuSans-30"/>
      </defs>
      <g transform="translate(109.1125 265.358594)scale(0.18 -0.18)">
       <use xlink:href="#DejaVuSans-30"/>
      </g>
     </g>
    </g>
    <g id="ytick_2">
     <g id="line2d_2">
      <g>
       <use style="stroke:#000000;stroke-width:0.8;" x="127.565" xlink:href="#md53e6480f9" y="220.401611"/>
      </g>
     </g>
     <g id="text_2">
      <!-- 500000 -->
      <defs>
       <path d="M 10.796875 72.90625 
L 49.515625 72.90625 
L 49.515625 64.59375 
L 19.828125 64.59375 
L 19.828125 46.734375 
Q 21.96875 47.46875 24.109375 47.828125 
Q 26.265625 48.1875 28.421875 48.1875 
Q 40.625 48.1875 47.75 41.5 
Q 54.890625 34.8125 54.890625 23.390625 
Q 54.890625 11.625 47.5625 5.09375 
Q 40.234375 -1.421875 26.90625 -1.421875 
Q 22.3125 -1.421875 17.546875 -0.640625 
Q 12.796875 0.140625 7.71875 1.703125 
L 7.71875 11.625 
Q 12.109375 9.234375 16.796875 8.0625 
Q 21.484375 6.890625 26.703125 6.890625 
Q 35.15625 6.890625 40.078125 11.328125 
Q 45.015625 15.765625 45.015625 23.390625 
Q 45.015625 31 40.078125 35.4375 
Q 35.15625 39.890625 26.703125 39.890625 
Q 22.75 39.890625 18.8125 39.015625 
Q 14.890625 38.140625 10.796875 36.28125 
z
" id="DejaVuSans-35"/>
      </defs>
      <g transform="translate(51.85 227.240205)scale(0.18 -0.18)">
       <use xlink:href="#DejaVuSans-35"/>
       <use x="63.623047" xlink:href="#DejaVuSans-30"/>
       <use x="127.246094" xlink:href="#DejaVuSans-30"/>
       <use x="190.869141" xlink:href="#DejaVuSans-30"/>
       <use x="254.492188" xlink:href="#DejaVuSans-30"/>
       <use x="318.115234" xlink:href="#DejaVuSans-30"/>
      </g>
     </g>
    </g>
    <g id="ytick_3">
     <g id="line2d_3">
      <g>
       <use style="stroke:#000000;stroke-width:0.8;" x="127.565" xlink:href="#md53e6480f9" y="182.283223"/>
      </g>
     </g>
     <g id="text_3">
      <!-- 1000000 -->
      <defs>
       <path d="M 12.40625 8.296875 
L 28.515625 8.296875 
L 28.515625 63.921875 
L 10.984375 60.40625 
L 10.984375 69.390625 
L 28.421875 72.90625 
L 38.28125 72.90625 
L 38.28125 8.296875 
L 54.390625 8.296875 
L 54.390625 0 
L 12.40625 0 
z
" id="DejaVuSans-31"/>
      </defs>
      <g transform="translate(40.3975 189.121816)scale(0.18 -0.18)">
       <use xlink:href="#DejaVuSans-31"/>
       <use x="63.623047" xlink:href="#DejaVuSans-30"/>
       <use x="127.246094" xlink:href="#DejaVuSans-30"/>
       <use x="190.869141" xlink:href="#DejaVuSans-30"/>
       <use x="254.492188" xlink:href="#DejaVuSans-30"/>
       <use x="318.115234" xlink:href="#DejaVuSans-30"/>
       <use x="381.738281" xlink:href="#DejaVuSans-30"/>
      </g>
     </g>
    </g>
    <g id="ytick_4">
     <g id="line2d_4">
      <g>
       <use style="stroke:#000000;stroke-width:0.8;" x="127.565" xlink:href="#md53e6480f9" y="144.164834"/>
      </g>
     </g>
     <g id="text_4">
      <!-- 1500000 -->
      <g transform="translate(40.3975 151.003428)scale(0.18 -0.18)">
       <use xlink:href="#DejaVuSans-31"/>
       <use x="63.623047" xlink:href="#DejaVuSans-35"/>
       <use x="127.246094" xlink:href="#DejaVuSans-30"/>
       <use x="190.869141" xlink:href="#DejaVuSans-30"/>
       <use x="254.492188" xlink:href="#DejaVuSans-30"/>
       <use x="318.115234" xlink:href="#DejaVuSans-30"/>
       <use x="381.738281" xlink:href="#DejaVuSans-30"/>
      </g>
     </g>
    </g>
    <g id="ytick_5">
     <g id="line2d_5">
      <g>
       <use style="stroke:#000000;stroke-width:0.8;" x="127.565" xlink:href="#md53e6480f9" y="106.046445"/>
      </g>
     </g>
     <g id="text_5">
      <!-- 2000000 -->
      <defs>
       <path d="M 19.1875 8.296875 
L 53.609375 8.296875 
L 53.609375 0 
L 7.328125 0 
L 7.328125 8.296875 
Q 12.9375 14.109375 22.625 23.890625 
Q 32.328125 33.6875 34.8125 36.53125 
Q 39.546875 41.84375 41.421875 45.53125 
Q 43.3125 49.21875 43.3125 52.78125 
Q 43.3125 58.59375 39.234375 62.25 
Q 35.15625 65.921875 28.609375 65.921875 
Q 23.96875 65.921875 18.8125 64.3125 
Q 13.671875 62.703125 7.8125 59.421875 
L 7.8125 69.390625 
Q 13.765625 71.78125 18.9375 73 
Q 24.125 74.21875 28.421875 74.21875 
Q 39.75 74.21875 46.484375 68.546875 
Q 53.21875 62.890625 53.21875 53.421875 
Q 53.21875 48.921875 51.53125 44.890625 
Q 49.859375 40.875 45.40625 35.40625 
Q 44.1875 33.984375 37.640625 27.21875 
Q 31.109375 20.453125 19.1875 8.296875 
z
" id="DejaVuSans-32"/>
      </defs>
      <g transform="translate(40.3975 112.885039)scale(0.18 -0.18)">
       <use xlink:href="#DejaVuSans-32"/>
       <use x="63.623047" xlink:href="#DejaVuSans-30"/>
       <use x="127.246094" xlink:href="#DejaVuSans-30"/>
       <use x="190.869141" xlink:href="#DejaVuSans-30"/>
       <use x="254.492188" xlink:href="#DejaVuSans-30"/>
       <use x="318.115234" xlink:href="#DejaVuSans-30"/>
       <use x="381.738281" xlink:href="#DejaVuSans-30"/>
      </g>
     </g>
    </g>
    <g id="ytick_6">
     <g id="line2d_6">
      <g>
       <use style="stroke:#000000;stroke-width:0.8;" x="127.565" xlink:href="#md53e6480f9" y="67.928057"/>
      </g>
     </g>
     <g id="text_6">
      <!-- 2500000 -->
      <g transform="translate(40.3975 74.76665)scale(0.18 -0.18)">
       <use xlink:href="#DejaVuSans-32"/>
       <use x="63.623047" xlink:href="#DejaVuSans-35"/>
       <use x="127.246094" xlink:href="#DejaVuSans-30"/>
       <use x="190.869141" xlink:href="#DejaVuSans-30"/>
       <use x="254.492188" xlink:href="#DejaVuSans-30"/>
       <use x="318.115234" xlink:href="#DejaVuSans-30"/>
       <use x="381.738281" xlink:href="#DejaVuSans-30"/>
      </g>
     </g>
    </g>
    <g id="text_7">
     <!-- Number of molecules -->
     <defs>
      <path d="M 9.8125 72.90625 
L 23.09375 72.90625 
L 55.421875 11.921875 
L 55.421875 72.90625 
L 64.984375 72.90625 
L 64.984375 0 
L 51.703125 0 
L 19.390625 60.984375 
L 19.390625 0 
L 9.8125 0 
z
" id="DejaVuSans-4e"/>
      <path d="M 8.5 21.578125 
L 8.5 54.6875 
L 17.484375 54.6875 
L 17.484375 21.921875 
Q 17.484375 14.15625 20.5 10.265625 
Q 23.53125 6.390625 29.59375 6.390625 
Q 36.859375 6.390625 41.078125 11.03125 
Q 45.3125 15.671875 45.3125 23.6875 
L 45.3125 54.6875 
L 54.296875 54.6875 
L 54.296875 0 
L 45.3125 0 
L 45.3125 8.40625 
Q 42.046875 3.421875 37.71875 1 
Q 33.40625 -1.421875 27.6875 -1.421875 
Q 18.265625 -1.421875 13.375 4.4375 
Q 8.5 10.296875 8.5 21.578125 
z
M 31.109375 56 
z
" id="DejaVuSans-75"/>
      <path d="M 52 44.1875 
Q 55.375 50.25 60.0625 53.125 
Q 64.75 56 71.09375 56 
Q 79.640625 56 84.28125 50.015625 
Q 88.921875 44.046875 88.921875 33.015625 
L 88.921875 0 
L 79.890625 0 
L 79.890625 32.71875 
Q 79.890625 40.578125 77.09375 44.375 
Q 74.3125 48.1875 68.609375 48.1875 
Q 61.625 48.1875 57.5625 43.546875 
Q 53.515625 38.921875 53.515625 30.90625 
L 53.515625 0 
L 44.484375 0 
L 44.484375 32.71875 
Q 44.484375 40.625 41.703125 44.40625 
Q 38.921875 48.1875 33.109375 48.1875 
Q 26.21875 48.1875 22.15625 43.53125 
Q 18.109375 38.875 18.109375 30.90625 
L 18.109375 0 
L 9.078125 0 
L 9.078125 54.6875 
L 18.109375 54.6875 
L 18.109375 46.1875 
Q 21.1875 51.21875 25.484375 53.609375 
Q 29.78125 56 35.6875 56 
Q 41.65625 56 45.828125 52.96875 
Q 50 49.953125 52 44.1875 
z
" id="DejaVuSans-6d"/>
      <path d="M 48.6875 27.296875 
Q 48.6875 37.203125 44.609375 42.84375 
Q 40.53125 48.484375 33.40625 48.484375 
Q 26.265625 48.484375 22.1875 42.84375 
Q 18.109375 37.203125 18.109375 27.296875 
Q 18.109375 17.390625 22.1875 11.75 
Q 26.265625 6.109375 33.40625 6.109375 
Q 40.53125 6.109375 44.609375 11.75 
Q 48.6875 17.390625 48.6875 27.296875 
z
M 18.109375 46.390625 
Q 20.953125 51.265625 25.265625 53.625 
Q 29.59375 56 35.59375 56 
Q 45.5625 56 51.78125 48.09375 
Q 58.015625 40.1875 58.015625 27.296875 
Q 58.015625 14.40625 51.78125 6.484375 
Q 45.5625 -1.421875 35.59375 -1.421875 
Q 29.59375 -1.421875 25.265625 0.953125 
Q 20.953125 3.328125 18.109375 8.203125 
L 18.109375 0 
L 9.078125 0 
L 9.078125 75.984375 
L 18.109375 75.984375 
z
" id="DejaVuSans-62"/>
      <path d="M 56.203125 29.59375 
L 56.203125 25.203125 
L 14.890625 25.203125 
Q 15.484375 15.921875 20.484375 11.0625 
Q 25.484375 6.203125 34.421875 6.203125 
Q 39.59375 6.203125 44.453125 7.46875 
Q 49.3125 8.734375 54.109375 11.28125 
L 54.109375 2.78125 
Q 49.265625 0.734375 44.1875 -0.34375 
Q 39.109375 -1.421875 33.890625 -1.421875 
Q 20.796875 -1.421875 13.15625 6.1875 
Q 5.515625 13.8125 5.515625 26.8125 
Q 5.515625 40.234375 12.765625 48.109375 
Q 20.015625 56 32.328125 56 
Q 43.359375 56 49.78125 48.890625 
Q 56.203125 41.796875 56.203125 29.59375 
z
M 47.21875 32.234375 
Q 47.125 39.59375 43.09375 43.984375 
Q 39.0625 48.390625 32.421875 48.390625 
Q 24.90625 48.390625 20.390625 44.140625 
Q 15.875 39.890625 15.1875 32.171875 
z
" id="DejaVuSans-65"/>
      <path d="M 41.109375 46.296875 
Q 39.59375 47.171875 37.8125 47.578125 
Q 36.03125 48 33.890625 48 
Q 26.265625 48 22.1875 43.046875 
Q 18.109375 38.09375 18.109375 28.8125 
L 18.109375 0 
L 9.078125 0 
L 9.078125 54.6875 
L 18.109375 54.6875 
L 18.109375 46.1875 
Q 20.953125 51.171875 25.484375 53.578125 
Q 30.03125 56 36.53125 56 
Q 37.453125 56 38.578125 55.875 
Q 39.703125 55.765625 41.0625 55.515625 
z
" id="DejaVuSans-72"/>
      <path id="DejaVuSans-20"/>
      <path d="M 30.609375 48.390625 
Q 23.390625 48.390625 19.1875 42.75 
Q 14.984375 37.109375 14.984375 27.296875 
Q 14.984375 17.484375 19.15625 11.84375 
Q 23.34375 6.203125 30.609375 6.203125 
Q 37.796875 6.203125 41.984375 11.859375 
Q 46.1875 17.53125 46.1875 27.296875 
Q 46.1875 37.015625 41.984375 42.703125 
Q 37.796875 48.390625 30.609375 48.390625 
z
M 30.609375 56 
Q 42.328125 56 49.015625 48.375 
Q 55.71875 40.765625 55.71875 27.296875 
Q 55.71875 13.875 49.015625 6.21875 
Q 42.328125 -1.421875 30.609375 -1.421875 
Q 18.84375 -1.421875 12.171875 6.21875 
Q 5.515625 13.875 5.515625 27.296875 
Q 5.515625 40.765625 12.171875 48.375 
Q 18.84375 56 30.609375 56 
z
" id="DejaVuSans-6f"/>
      <path d="M 37.109375 75.984375 
L 37.109375 68.5 
L 28.515625 68.5 
Q 23.6875 68.5 21.796875 66.546875 
Q 19.921875 64.59375 19.921875 59.515625 
L 19.921875 54.6875 
L 34.71875 54.6875 
L 34.71875 47.703125 
L 19.921875 47.703125 
L 19.921875 0 
L 10.890625 0 
L 10.890625 47.703125 
L 2.296875 47.703125 
L 2.296875 54.6875 
L 10.890625 54.6875 
L 10.890625 58.5 
Q 10.890625 67.625 15.140625 71.796875 
Q 19.390625 75.984375 28.609375 75.984375 
z
" id="DejaVuSans-66"/>
      <path d="M 9.421875 75.984375 
L 18.40625 75.984375 
L 18.40625 0 
L 9.421875 0 
z
" id="DejaVuSans-6c"/>
      <path d="M 48.78125 52.59375 
L 48.78125 44.1875 
Q 44.96875 46.296875 41.140625 47.34375 
Q 37.3125 48.390625 33.40625 48.390625 
Q 24.65625 48.390625 19.8125 42.84375 
Q 14.984375 37.3125 14.984375 27.296875 
Q 14.984375 17.28125 19.8125 11.734375 
Q 24.65625 6.203125 33.40625 6.203125 
Q 37.3125 6.203125 41.140625 7.25 
Q 44.96875 8.296875 48.78125 10.40625 
L 48.78125 2.09375 
Q 45.015625 0.34375 40.984375 -0.53125 
Q 36.96875 -1.421875 32.421875 -1.421875 
Q 20.0625 -1.421875 12.78125 6.34375 
Q 5.515625 14.109375 5.515625 27.296875 
Q 5.515625 40.671875 12.859375 48.328125 
Q 20.21875 56 33.015625 56 
Q 37.15625 56 41.109375 55.140625 
Q 45.0625 54.296875 48.78125 52.59375 
z
" id="DejaVuSans-63"/>
      <path d="M 44.28125 53.078125 
L 44.28125 44.578125 
Q 40.484375 46.53125 36.375 47.5 
Q 32.28125 48.484375 27.875 48.484375 
Q 21.1875 48.484375 17.84375 46.4375 
Q 14.5 44.390625 14.5 40.28125 
Q 14.5 37.15625 16.890625 35.375 
Q 19.28125 33.59375 26.515625 31.984375 
L 29.59375 31.296875 
Q 39.15625 29.25 43.1875 25.515625 
Q 47.21875 21.78125 47.21875 15.09375 
Q 47.21875 7.46875 41.1875 3.015625 
Q 35.15625 -1.421875 24.609375 -1.421875 
Q 20.21875 -1.421875 15.453125 -0.5625 
Q 10.6875 0.296875 5.421875 2 
L 5.421875 11.28125 
Q 10.40625 8.6875 15.234375 7.390625 
Q 20.0625 6.109375 24.8125 6.109375 
Q 31.15625 6.109375 34.5625 8.28125 
Q 37.984375 10.453125 37.984375 14.40625 
Q 37.984375 18.0625 35.515625 20.015625 
Q 33.0625 21.96875 24.703125 23.78125 
L 21.578125 24.515625 
Q 13.234375 26.265625 9.515625 29.90625 
Q 5.8125 33.546875 5.8125 39.890625 
Q 5.8125 47.609375 11.28125 51.796875 
Q 16.75 56 26.8125 56 
Q 31.78125 56 36.171875 55.265625 
Q 40.578125 54.546875 44.28125 53.078125 
z
" id="DejaVuSans-73"/>
     </defs>
     <g transform="translate(32.654062 246.220937)rotate(-90)scale(0.18 -0.18)">
      <use xlink:href="#DejaVuSans-4e"/>
      <use x="74.804688" xlink:href="#DejaVuSans-75"/>
      <use x="138.183594" xlink:href="#DejaVuSans-6d"/>
      <use x="235.595703" xlink:href="#DejaVuSans-62"/>
      <use x="299.072266" xlink:href="#DejaVuSans-65"/>
      <use x="360.595703" xlink:href="#DejaVuSans-72"/>
      <use x="401.708984" xlink:href="#DejaVuSans-20"/>
      <use x="433.496094" xlink:href="#DejaVuSans-6f"/>
      <use x="494.677734" xlink:href="#DejaVuSans-66"/>
      <use x="529.882812" xlink:href="#DejaVuSans-20"/>
      <use x="561.669922" xlink:href="#DejaVuSans-6d"/>
      <use x="659.082031" xlink:href="#DejaVuSans-6f"/>
      <use x="720.263672" xlink:href="#DejaVuSans-6c"/>
      <use x="748.046875" xlink:href="#DejaVuSans-65"/>
      <use x="809.570312" xlink:href="#DejaVuSans-63"/>
      <use x="864.550781" xlink:href="#DejaVuSans-75"/>
      <use x="927.929688" xlink:href="#DejaVuSans-6c"/>
      <use x="955.712891" xlink:href="#DejaVuSans-65"/>
      <use x="1017.236328" xlink:href="#DejaVuSans-73"/>
     </g>
    </g>
   </g>
   <g id="patch_53">
    <path d="M 127.565 258.52 
L 127.565 41.44 
" style="fill:none;stroke:#000000;stroke-linecap:square;stroke-linejoin:miter;stroke-width:0.8;"/>
   </g>
   <g id="patch_54">
    <path d="M 127.565 258.52 
L 1129.06 258.52 
" style="fill:none;stroke:#000000;stroke-linecap:square;stroke-linejoin:miter;stroke-width:0.8;"/>
   </g>
   <g id="text_8">
    <!-- ~ECFP_4 (radius 2) -->
    <defs>
     <path d="M 73.1875 39.890625 
L 73.1875 31.203125 
Q 68.0625 27.34375 63.6875 25.6875 
Q 59.328125 24.03125 54.59375 24.03125 
Q 49.21875 24.03125 42.09375 26.90625 
Q 41.546875 27.09375 41.3125 27.203125 
Q 40.96875 27.34375 40.234375 27.59375 
Q 32.671875 30.609375 28.078125 30.609375 
Q 23.78125 30.609375 19.578125 28.734375 
Q 15.375 26.859375 10.59375 22.796875 
L 10.59375 31.5 
Q 15.71875 35.359375 20.09375 37.03125 
Q 24.46875 38.71875 29.203125 38.71875 
Q 34.578125 38.71875 41.75 35.796875 
Q 42.234375 35.59375 42.484375 35.5 
Q 42.875 35.359375 43.5625 35.109375 
Q 51.125 32.078125 55.71875 32.078125 
Q 59.90625 32.078125 64.03125 33.9375 
Q 68.171875 35.796875 73.1875 39.890625 
z
" id="DejaVuSans-7e"/>
     <path d="M 9.8125 72.90625 
L 55.90625 72.90625 
L 55.90625 64.59375 
L 19.671875 64.59375 
L 19.671875 43.015625 
L 54.390625 43.015625 
L 54.390625 34.71875 
L 19.671875 34.71875 
L 19.671875 8.296875 
L 56.78125 8.296875 
L 56.78125 0 
L 9.8125 0 
z
" id="DejaVuSans-45"/>
     <path d="M 64.40625 67.28125 
L 64.40625 56.890625 
Q 59.421875 61.53125 53.78125 63.8125 
Q 48.140625 66.109375 41.796875 66.109375 
Q 29.296875 66.109375 22.65625 58.46875 
Q 16.015625 50.828125 16.015625 36.375 
Q 16.015625 21.96875 22.65625 14.328125 
Q 29.296875 6.6875 41.796875 6.6875 
Q 48.140625 6.6875 53.78125 8.984375 
Q 59.421875 11.28125 64.40625 15.921875 
L 64.40625 5.609375 
Q 59.234375 2.09375 53.4375 0.328125 
Q 47.65625 -1.421875 41.21875 -1.421875 
Q 24.65625 -1.421875 15.125 8.703125 
Q 5.609375 18.84375 5.609375 36.375 
Q 5.609375 53.953125 15.125 64.078125 
Q 24.65625 74.21875 41.21875 74.21875 
Q 47.75 74.21875 53.53125 72.484375 
Q 59.328125 70.75 64.40625 67.28125 
z
" id="DejaVuSans-43"/>
     <path d="M 9.8125 72.90625 
L 51.703125 72.90625 
L 51.703125 64.59375 
L 19.671875 64.59375 
L 19.671875 43.109375 
L 48.578125 43.109375 
L 48.578125 34.8125 
L 19.671875 34.8125 
L 19.671875 0 
L 9.8125 0 
z
" id="DejaVuSans-46"/>
     <path d="M 19.671875 64.796875 
L 19.671875 37.40625 
L 32.078125 37.40625 
Q 38.96875 37.40625 42.71875 40.96875 
Q 46.484375 44.53125 46.484375 51.125 
Q 46.484375 57.671875 42.71875 61.234375 
Q 38.96875 64.796875 32.078125 64.796875 
z
M 9.8125 72.90625 
L 32.078125 72.90625 
Q 44.34375 72.90625 50.609375 67.359375 
Q 56.890625 61.8125 56.890625 51.125 
Q 56.890625 40.328125 50.609375 34.8125 
Q 44.34375 29.296875 32.078125 29.296875 
L 19.671875 29.296875 
L 19.671875 0 
L 9.8125 0 
z
" id="DejaVuSans-50"/>
     <path d="M 50.984375 -16.609375 
L 50.984375 -23.578125 
L -0.984375 -23.578125 
L -0.984375 -16.609375 
z
" id="DejaVuSans-5f"/>
     <path d="M 37.796875 64.3125 
L 12.890625 25.390625 
L 37.796875 25.390625 
z
M 35.203125 72.90625 
L 47.609375 72.90625 
L 47.609375 25.390625 
L 58.015625 25.390625 
L 58.015625 17.1875 
L 47.609375 17.1875 
L 47.609375 0 
L 37.796875 0 
L 37.796875 17.1875 
L 4.890625 17.1875 
L 4.890625 26.703125 
z
" id="DejaVuSans-34"/>
     <path d="M 31 75.875 
Q 24.46875 64.65625 21.28125 53.65625 
Q 18.109375 42.671875 18.109375 31.390625 
Q 18.109375 20.125 21.3125 9.0625 
Q 24.515625 -2 31 -13.1875 
L 23.1875 -13.1875 
Q 15.875 -1.703125 12.234375 9.375 
Q 8.59375 20.453125 8.59375 31.390625 
Q 8.59375 42.28125 12.203125 53.3125 
Q 15.828125 64.359375 23.1875 75.875 
z
" id="DejaVuSans-28"/>
     <path d="M 34.28125 27.484375 
Q 23.390625 27.484375 19.1875 25 
Q 14.984375 22.515625 14.984375 16.5 
Q 14.984375 11.71875 18.140625 8.90625 
Q 21.296875 6.109375 26.703125 6.109375 
Q 34.1875 6.109375 38.703125 11.40625 
Q 43.21875 16.703125 43.21875 25.484375 
L 43.21875 27.484375 
z
M 52.203125 31.203125 
L 52.203125 0 
L 43.21875 0 
L 43.21875 8.296875 
Q 40.140625 3.328125 35.546875 0.953125 
Q 30.953125 -1.421875 24.3125 -1.421875 
Q 15.921875 -1.421875 10.953125 3.296875 
Q 6 8.015625 6 15.921875 
Q 6 25.140625 12.171875 29.828125 
Q 18.359375 34.515625 30.609375 34.515625 
L 43.21875 34.515625 
L 43.21875 35.40625 
Q 43.21875 41.609375 39.140625 45 
Q 35.0625 48.390625 27.6875 48.390625 
Q 23 48.390625 18.546875 47.265625 
Q 14.109375 46.140625 10.015625 43.890625 
L 10.015625 52.203125 
Q 14.9375 54.109375 19.578125 55.046875 
Q 24.21875 56 28.609375 56 
Q 40.484375 56 46.34375 49.84375 
Q 52.203125 43.703125 52.203125 31.203125 
z
" id="DejaVuSans-61"/>
     <path d="M 45.40625 46.390625 
L 45.40625 75.984375 
L 54.390625 75.984375 
L 54.390625 0 
L 45.40625 0 
L 45.40625 8.203125 
Q 42.578125 3.328125 38.25 0.953125 
Q 33.9375 -1.421875 27.875 -1.421875 
Q 17.96875 -1.421875 11.734375 6.484375 
Q 5.515625 14.40625 5.515625 27.296875 
Q 5.515625 40.1875 11.734375 48.09375 
Q 17.96875 56 27.875 56 
Q 33.9375 56 38.25 53.625 
Q 42.578125 51.265625 45.40625 46.390625 
z
M 14.796875 27.296875 
Q 14.796875 17.390625 18.875 11.75 
Q 22.953125 6.109375 30.078125 6.109375 
Q 37.203125 6.109375 41.296875 11.75 
Q 45.40625 17.390625 45.40625 27.296875 
Q 45.40625 37.203125 41.296875 42.84375 
Q 37.203125 48.484375 30.078125 48.484375 
Q 22.953125 48.484375 18.875 42.84375 
Q 14.796875 37.203125 14.796875 27.296875 
z
" id="DejaVuSans-64"/>
     <path d="M 9.421875 54.6875 
L 18.40625 54.6875 
L 18.40625 0 
L 9.421875 0 
z
M 9.421875 75.984375 
L 18.40625 75.984375 
L 18.40625 64.59375 
L 9.421875 64.59375 
z
" id="DejaVuSans-69"/>
     <path d="M 8.015625 75.875 
L 15.828125 75.875 
Q 23.140625 64.359375 26.78125 53.3125 
Q 30.421875 42.28125 30.421875 31.390625 
Q 30.421875 20.453125 26.78125 9.375 
Q 23.140625 -1.703125 15.828125 -13.1875 
L 8.015625 -13.1875 
Q 14.5 -2 17.703125 9.0625 
Q 20.90625 20.125 20.90625 31.390625 
Q 20.90625 42.671875 17.703125 53.65625 
Q 14.5 64.65625 8.015625 75.875 
z
" id="DejaVuSans-29"/>
    </defs>
    <g transform="translate(524.352375 35.44)scale(0.216 -0.216)">
     <use xlink:href="#DejaVuSans-7e"/>
     <use x="83.789062" xlink:href="#DejaVuSans-45"/>
     <use x="146.972656" xlink:href="#DejaVuSans-43"/>
     <use x="216.796875" xlink:href="#DejaVuSans-46"/>
     <use x="274.316406" xlink:href="#DejaVuSans-50"/>
     <use x="334.619141" xlink:href="#DejaVuSans-5f"/>
     <use x="384.619141" xlink:href="#DejaVuSans-34"/>
     <use x="448.242188" xlink:href="#DejaVuSans-20"/>
     <use x="480.029297" xlink:href="#DejaVuSans-28"/>
     <use x="519.042969" xlink:href="#DejaVuSans-72"/>
     <use x="560.15625" xlink:href="#DejaVuSans-61"/>
     <use x="621.435547" xlink:href="#DejaVuSans-64"/>
     <use x="684.912109" xlink:href="#DejaVuSans-69"/>
     <use x="712.695312" xlink:href="#DejaVuSans-75"/>
     <use x="776.074219" xlink:href="#DejaVuSans-73"/>
     <use x="828.173828" xlink:href="#DejaVuSans-20"/>
     <use x="859.960938" xlink:href="#DejaVuSans-32"/>
     <use x="923.583984" xlink:href="#DejaVuSans-29"/>
    </g>
   </g>
  </g>
  <g id="axes_2">
   <g id="patch_55">
    <path d="M 127.565 528.04 
L 1129.06 528.04 
L 1129.06 310.96 
L 127.565 310.96 
z
" style="fill:#ffffff;"/>
   </g>
   <g id="patch_56">
    <path clip-path="url(#pe632f43cac)" d="M 173.0875 528.04 
L 191.11441 528.04 
L 191.11441 321.297143 
L 173.0875 321.297143 
z
" style="fill:#0072b2;opacity:0.4;"/>
   </g>
   <g id="patch_57">
    <path clip-path="url(#pe632f43cac)" d="M 191.11441 528.04 
L 209.14132 528.04 
L 209.14132 461.044857 
L 191.11441 461.044857 
z
" style="fill:#0072b2;opacity:0.4;"/>
   </g>
   <g id="patch_58">
    <path clip-path="url(#pe632f43cac)" d="M 209.14132 528.04 
L 227.16823 528.04 
L 227.16823 469.158364 
L 209.14132 469.158364 
z
" style="fill:#0072b2;opacity:0.4;"/>
   </g>
   <g id="patch_59">
    <path clip-path="url(#pe632f43cac)" d="M 227.16823 528.04 
L 245.19514 528.04 
L 245.19514 472.183617 
L 227.16823 472.183617 
z
" style="fill:#0072b2;opacity:0.4;"/>
   </g>
   <g id="patch_60">
    <path clip-path="url(#pe632f43cac)" d="M 245.19514 528.04 
L 263.22205 528.04 
L 263.22205 470.024119 
L 245.19514 470.024119 
z
" style="fill:#0072b2;opacity:0.4;"/>
   </g>
   <g id="patch_61">
    <path clip-path="url(#pe632f43cac)" d="M 263.22205 528.04 
L 281.24896 528.04 
L 281.24896 472.091412 
L 263.22205 472.091412 
z
" style="fill:#0072b2;opacity:0.4;"/>
   </g>
   <g id="patch_62">
    <path clip-path="url(#pe632f43cac)" d="M 281.24896 528.04 
L 299.27587 528.04 
L 299.27587 481.388324 
L 281.24896 481.388324 
z
" style="fill:#0072b2;opacity:0.4;"/>
   </g>
   <g id="patch_63">
    <path clip-path="url(#pe632f43cac)" d="M 299.27587 528.04 
L 317.30278 528.04 
L 317.30278 492.070946 
L 299.27587 492.070946 
z
" style="fill:#0072b2;opacity:0.4;"/>
   </g>
   <g id="patch_64">
    <path clip-path="url(#pe632f43cac)" d="M 317.30278 528.04 
L 335.32969 528.04 
L 335.32969 501.999223 
L 317.30278 501.999223 
z
" style="fill:#0072b2;opacity:0.4;"/>
   </g>
   <g id="patch_65">
    <path clip-path="url(#pe632f43cac)" d="M 335.32969 528.04 
L 353.3566 528.04 
L 353.3566 510.26231 
L 335.32969 510.26231 
z
" style="fill:#0072b2;opacity:0.4;"/>
   </g>
   <g id="patch_66">
    <path clip-path="url(#pe632f43cac)" d="M 353.3566 528.04 
L 371.38351 528.04 
L 371.38351 515.956877 
L 353.3566 515.956877 
z
" style="fill:#0072b2;opacity:0.4;"/>
   </g>
   <g id="patch_67">
    <path clip-path="url(#pe632f43cac)" d="M 371.38351 528.04 
L 389.41042 528.04 
L 389.41042 520.801673 
L 371.38351 520.801673 
z
" style="fill:#0072b2;opacity:0.4;"/>
   </g>
   <g id="patch_68">
    <path clip-path="url(#pe632f43cac)" d="M 389.41042 528.04 
L 407.43733 528.04 
L 407.43733 524.276385 
L 389.41042 524.276385 
z
" style="fill:#0072b2;opacity:0.4;"/>
   </g>
   <g id="patch_69">
    <path clip-path="url(#pe632f43cac)" d="M 407.43733 528.04 
L 425.46424 528.04 
L 425.46424 526.035927 
L 407.43733 526.035927 
z
" style="fill:#0072b2;opacity:0.4;"/>
   </g>
   <g id="patch_70">
    <path clip-path="url(#pe632f43cac)" d="M 425.46424 528.04 
L 443.49115 528.04 
L 443.49115 527.044107 
L 425.46424 527.044107 
z
" style="fill:#0072b2;opacity:0.4;"/>
   </g>
   <g id="patch_71">
    <path clip-path="url(#pe632f43cac)" d="M 443.49115 528.04 
L 461.51806 528.04 
L 461.51806 527.597699 
L 443.49115 527.597699 
z
" style="fill:#0072b2;opacity:0.4;"/>
   </g>
   <g id="patch_72">
    <path clip-path="url(#pe632f43cac)" d="M 461.51806 528.04 
L 479.54497 528.04 
L 479.54497 527.830658 
L 461.51806 527.830658 
z
" style="fill:#0072b2;opacity:0.4;"/>
   </g>
   <g id="patch_73">
    <path clip-path="url(#pe632f43cac)" d="M 479.54497 528.04 
L 497.57188 528.04 
L 497.57188 527.92847 
L 479.54497 527.92847 
z
" style="fill:#0072b2;opacity:0.4;"/>
   </g>
   <g id="patch_74">
    <path clip-path="url(#pe632f43cac)" d="M 497.57188 528.04 
L 515.59879 528.04 
L 515.59879 527.959245 
L 497.57188 527.959245 
z
" style="fill:#0072b2;opacity:0.4;"/>
   </g>
   <g id="patch_75">
    <path clip-path="url(#pe632f43cac)" d="M 515.59879 528.04 
L 533.6257 528.04 
L 533.6257 527.998609 
L 515.59879 527.998609 
z
" style="fill:#0072b2;opacity:0.4;"/>
   </g>
   <g id="patch_76">
    <path clip-path="url(#pe632f43cac)" d="M 533.6257 528.04 
L 551.65261 528.04 
L 551.65261 528.000279 
L 533.6257 528.000279 
z
" style="fill:#0072b2;opacity:0.4;"/>
   </g>
   <g id="patch_77">
    <path clip-path="url(#pe632f43cac)" d="M 551.65261 528.04 
L 569.67952 528.04 
L 569.67952 528.017336 
L 551.65261 528.017336 
z
" style="fill:#0072b2;opacity:0.4;"/>
   </g>
   <g id="patch_78">
    <path clip-path="url(#pe632f43cac)" d="M 569.67952 528.04 
L 587.70643 528.04 
L 587.70643 528.02175 
L 569.67952 528.02175 
z
" style="fill:#0072b2;opacity:0.4;"/>
   </g>
   <g id="patch_79">
    <path clip-path="url(#pe632f43cac)" d="M 587.70643 528.04 
L 605.73334 528.04 
L 605.73334 528.026879 
L 587.70643 528.026879 
z
" style="fill:#0072b2;opacity:0.4;"/>
   </g>
   <g id="patch_80">
    <path clip-path="url(#pe632f43cac)" d="M 605.73334 528.04 
L 623.76025 528.04 
L 623.76025 528.029622 
L 605.73334 528.029622 
z
" style="fill:#0072b2;opacity:0.4;"/>
   </g>
   <g id="patch_81">
    <path clip-path="url(#pe632f43cac)" d="M 623.76025 528.04 
L 641.78716 528.04 
L 641.78716 528.031173 
L 623.76025 528.031173 
z
" style="fill:#0072b2;opacity:0.4;"/>
   </g>
   <g id="patch_82">
    <path clip-path="url(#pe632f43cac)" d="M 641.78716 528.04 
L 659.81407 528.04 
L 659.81407 528.034155 
L 641.78716 528.034155 
z
" style="fill:#0072b2;opacity:0.4;"/>
   </g>
   <g id="patch_83">
    <path clip-path="url(#pe632f43cac)" d="M 659.81407 528.04 
L 677.84098 528.04 
L 677.84098 528.033678 
L 659.81407 528.033678 
z
" style="fill:#0072b2;opacity:0.4;"/>
   </g>
   <g id="patch_84">
    <path clip-path="url(#pe632f43cac)" d="M 677.84098 528.04 
L 695.86789 528.04 
L 695.86789 528.035825 
L 677.84098 528.035825 
z
" style="fill:#0072b2;opacity:0.4;"/>
   </g>
   <g id="patch_85">
    <path clip-path="url(#pe632f43cac)" d="M 695.86789 528.04 
L 713.8948 528.04 
L 713.8948 528.036899 
L 695.86789 528.036899 
z
" style="fill:#0072b2;opacity:0.4;"/>
   </g>
   <g id="patch_86">
    <path clip-path="url(#pe632f43cac)" d="M 713.8948 528.04 
L 731.92171 528.04 
L 731.92171 528.035229 
L 713.8948 528.035229 
z
" style="fill:#0072b2;opacity:0.4;"/>
   </g>
   <g id="patch_87">
    <path clip-path="url(#pe632f43cac)" d="M 731.92171 528.04 
L 749.94862 528.04 
L 749.94862 528.033678 
L 731.92171 528.033678 
z
" style="fill:#0072b2;opacity:0.4;"/>
   </g>
   <g id="patch_88">
    <path clip-path="url(#pe632f43cac)" d="M 749.94862 528.04 
L 767.97553 528.04 
L 767.97553 528.034394 
L 749.94862 528.034394 
z
" style="fill:#0072b2;opacity:0.4;"/>
   </g>
   <g id="patch_89">
    <path clip-path="url(#pe632f43cac)" d="M 767.97553 528.04 
L 786.00244 528.04 
L 786.00244 528.032843 
L 767.97553 528.032843 
z
" style="fill:#0072b2;opacity:0.4;"/>
   </g>
   <g id="patch_90">
    <path clip-path="url(#pe632f43cac)" d="M 786.00244 528.04 
L 804.02935 528.04 
L 804.02935 528.036302 
L 786.00244 528.036302 
z
" style="fill:#0072b2;opacity:0.4;"/>
   </g>
   <g id="patch_91">
    <path clip-path="url(#pe632f43cac)" d="M 804.02935 528.04 
L 822.05626 528.04 
L 822.05626 528.038211 
L 804.02935 528.038211 
z
" style="fill:#0072b2;opacity:0.4;"/>
   </g>
   <g id="patch_92">
    <path clip-path="url(#pe632f43cac)" d="M 822.05626 528.04 
L 840.08317 528.04 
L 840.08317 528.039046 
L 822.05626 528.039046 
z
" style="fill:#0072b2;opacity:0.4;"/>
   </g>
   <g id="patch_93">
    <path clip-path="url(#pe632f43cac)" d="M 840.08317 528.04 
L 858.11008 528.04 
L 858.11008 528.039046 
L 840.08317 528.039046 
z
" style="fill:#0072b2;opacity:0.4;"/>
   </g>
   <g id="patch_94">
    <path clip-path="url(#pe632f43cac)" d="M 858.11008 528.04 
L 876.13699 528.04 
L 876.13699 528.038569 
L 858.11008 528.038569 
z
" style="fill:#0072b2;opacity:0.4;"/>
   </g>
   <g id="patch_95">
    <path clip-path="url(#pe632f43cac)" d="M 876.13699 528.04 
L 894.1639 528.04 
L 894.1639 528.039284 
L 876.13699 528.039284 
z
" style="fill:#0072b2;opacity:0.4;"/>
   </g>
   <g id="patch_96">
    <path clip-path="url(#pe632f43cac)" d="M 894.1639 528.04 
L 912.19081 528.04 
L 912.19081 528.039523 
L 894.1639 528.039523 
z
" style="fill:#0072b2;opacity:0.4;"/>
   </g>
   <g id="patch_97">
    <path clip-path="url(#pe632f43cac)" d="M 912.19081 528.04 
L 930.21772 528.04 
L 930.21772 528.039284 
L 912.19081 528.039284 
z
" style="fill:#0072b2;opacity:0.4;"/>
   </g>
   <g id="patch_98">
    <path clip-path="url(#pe632f43cac)" d="M 930.21772 528.04 
L 948.24463 528.04 
L 948.24463 528.039523 
L 930.21772 528.039523 
z
" style="fill:#0072b2;opacity:0.4;"/>
   </g>
   <g id="patch_99">
    <path clip-path="url(#pe632f43cac)" d="M 948.24463 528.04 
L 966.27154 528.04 
L 966.27154 528.039523 
L 948.24463 528.039523 
z
" style="fill:#0072b2;opacity:0.4;"/>
   </g>
   <g id="patch_100">
    <path clip-path="url(#pe632f43cac)" d="M 966.27154 528.04 
L 984.29845 528.04 
L 984.29845 528.039284 
L 966.27154 528.039284 
z
" style="fill:#0072b2;opacity:0.4;"/>
   </g>
   <g id="patch_101">
    <path clip-path="url(#pe632f43cac)" d="M 984.29845 528.04 
L 1002.32536 528.04 
L 1002.32536 528.039523 
L 984.29845 528.039523 
z
" style="fill:#0072b2;opacity:0.4;"/>
   </g>
   <g id="patch_102">
    <path clip-path="url(#pe632f43cac)" d="M 1002.32536 528.04 
L 1020.35227 528.04 
L 1020.35227 528.039761 
L 1002.32536 528.039761 
z
" style="fill:#0072b2;opacity:0.4;"/>
   </g>
   <g id="patch_103">
    <path clip-path="url(#pe632f43cac)" d="M 1020.35227 528.04 
L 1038.37918 528.04 
L 1038.37918 528.039642 
L 1020.35227 528.039642 
z
" style="fill:#0072b2;opacity:0.4;"/>
   </g>
   <g id="patch_104">
    <path clip-path="url(#pe632f43cac)" d="M 1038.37918 528.04 
L 1056.40609 528.04 
L 1056.40609 528.04 
L 1038.37918 528.04 
z
" style="fill:#0072b2;opacity:0.4;"/>
   </g>
   <g id="patch_105">
    <path clip-path="url(#pe632f43cac)" d="M 1056.40609 528.04 
L 1074.433 528.04 
L 1074.433 528.039881 
L 1056.40609 528.039881 
z
" style="fill:#0072b2;opacity:0.4;"/>
   </g>
   <g id="matplotlib.axis_2">
    <g id="ytick_7">
     <g id="line2d_7">
      <g>
       <use style="stroke:#000000;stroke-width:0.8;" x="127.565" xlink:href="#md53e6480f9" y="528.04"/>
      </g>
     </g>
     <g id="text_9">
      <!-- 0 -->
      <g transform="translate(109.1125 534.878594)scale(0.18 -0.18)">
       <use xlink:href="#DejaVuSans-30"/>
      </g>
     </g>
    </g>
    <g id="ytick_8">
     <g id="line2d_8">
      <g>
       <use style="stroke:#000000;stroke-width:0.8;" x="127.565" xlink:href="#md53e6480f9" y="468.398531"/>
      </g>
     </g>
     <g id="text_10">
      <!-- 500000 -->
      <g transform="translate(51.85 475.237125)scale(0.18 -0.18)">
       <use xlink:href="#DejaVuSans-35"/>
       <use x="63.623047" xlink:href="#DejaVuSans-30"/>
       <use x="127.246094" xlink:href="#DejaVuSans-30"/>
       <use x="190.869141" xlink:href="#DejaVuSans-30"/>
       <use x="254.492188" xlink:href="#DejaVuSans-30"/>
       <use x="318.115234" xlink:href="#DejaVuSans-30"/>
      </g>
     </g>
    </g>
    <g id="ytick_9">
     <g id="line2d_9">
      <g>
       <use style="stroke:#000000;stroke-width:0.8;" x="127.565" xlink:href="#md53e6480f9" y="408.757063"/>
      </g>
     </g>
     <g id="text_11">
      <!-- 1000000 -->
      <g transform="translate(40.3975 415.595656)scale(0.18 -0.18)">
       <use xlink:href="#DejaVuSans-31"/>
       <use x="63.623047" xlink:href="#DejaVuSans-30"/>
       <use x="127.246094" xlink:href="#DejaVuSans-30"/>
       <use x="190.869141" xlink:href="#DejaVuSans-30"/>
       <use x="254.492188" xlink:href="#DejaVuSans-30"/>
       <use x="318.115234" xlink:href="#DejaVuSans-30"/>
       <use x="381.738281" xlink:href="#DejaVuSans-30"/>
      </g>
     </g>
    </g>
    <g id="ytick_10">
     <g id="line2d_10">
      <g>
       <use style="stroke:#000000;stroke-width:0.8;" x="127.565" xlink:href="#md53e6480f9" y="349.115594"/>
      </g>
     </g>
     <g id="text_12">
      <!-- 1500000 -->
      <g transform="translate(40.3975 355.954188)scale(0.18 -0.18)">
       <use xlink:href="#DejaVuSans-31"/>
       <use x="63.623047" xlink:href="#DejaVuSans-35"/>
       <use x="127.246094" xlink:href="#DejaVuSans-30"/>
       <use x="190.869141" xlink:href="#DejaVuSans-30"/>
       <use x="254.492188" xlink:href="#DejaVuSans-30"/>
       <use x="318.115234" xlink:href="#DejaVuSans-30"/>
       <use x="381.738281" xlink:href="#DejaVuSans-30"/>
      </g>
     </g>
    </g>
    <g id="text_13">
     <!-- Number of molecules -->
     <g transform="translate(32.654062 515.740938)rotate(-90)scale(0.18 -0.18)">
      <use xlink:href="#DejaVuSans-4e"/>
      <use x="74.804688" xlink:href="#DejaVuSans-75"/>
      <use x="138.183594" xlink:href="#DejaVuSans-6d"/>
      <use x="235.595703" xlink:href="#DejaVuSans-62"/>
      <use x="299.072266" xlink:href="#DejaVuSans-65"/>
      <use x="360.595703" xlink:href="#DejaVuSans-72"/>
      <use x="401.708984" xlink:href="#DejaVuSans-20"/>
      <use x="433.496094" xlink:href="#DejaVuSans-6f"/>
      <use x="494.677734" xlink:href="#DejaVuSans-66"/>
      <use x="529.882812" xlink:href="#DejaVuSans-20"/>
      <use x="561.669922" xlink:href="#DejaVuSans-6d"/>
      <use x="659.082031" xlink:href="#DejaVuSans-6f"/>
      <use x="720.263672" xlink:href="#DejaVuSans-6c"/>
      <use x="748.046875" xlink:href="#DejaVuSans-65"/>
      <use x="809.570312" xlink:href="#DejaVuSans-63"/>
      <use x="864.550781" xlink:href="#DejaVuSans-75"/>
      <use x="927.929688" xlink:href="#DejaVuSans-6c"/>
      <use x="955.712891" xlink:href="#DejaVuSans-65"/>
      <use x="1017.236328" xlink:href="#DejaVuSans-73"/>
     </g>
    </g>
   </g>
   <g id="patch_106">
    <path d="M 127.565 528.04 
L 127.565 310.96 
" style="fill:none;stroke:#000000;stroke-linecap:square;stroke-linejoin:miter;stroke-width:0.8;"/>
   </g>
   <g id="patch_107">
    <path d="M 127.565 528.04 
L 1129.06 528.04 
" style="fill:none;stroke:#000000;stroke-linecap:square;stroke-linejoin:miter;stroke-width:0.8;"/>
   </g>
   <g id="text_14">
    <!-- ~ECFP_6 (radius 3) -->
    <defs>
     <path d="M 33.015625 40.375 
Q 26.375 40.375 22.484375 35.828125 
Q 18.609375 31.296875 18.609375 23.390625 
Q 18.609375 15.53125 22.484375 10.953125 
Q 26.375 6.390625 33.015625 6.390625 
Q 39.65625 6.390625 43.53125 10.953125 
Q 47.40625 15.53125 47.40625 23.390625 
Q 47.40625 31.296875 43.53125 35.828125 
Q 39.65625 40.375 33.015625 40.375 
z
M 52.59375 71.296875 
L 52.59375 62.3125 
Q 48.875 64.0625 45.09375 64.984375 
Q 41.3125 65.921875 37.59375 65.921875 
Q 27.828125 65.921875 22.671875 59.328125 
Q 17.53125 52.734375 16.796875 39.40625 
Q 19.671875 43.65625 24.015625 45.921875 
Q 28.375 48.1875 33.59375 48.1875 
Q 44.578125 48.1875 50.953125 41.515625 
Q 57.328125 34.859375 57.328125 23.390625 
Q 57.328125 12.15625 50.6875 5.359375 
Q 44.046875 -1.421875 33.015625 -1.421875 
Q 20.359375 -1.421875 13.671875 8.265625 
Q 6.984375 17.96875 6.984375 36.375 
Q 6.984375 53.65625 15.1875 63.9375 
Q 23.390625 74.21875 37.203125 74.21875 
Q 40.921875 74.21875 44.703125 73.484375 
Q 48.484375 72.75 52.59375 71.296875 
z
" id="DejaVuSans-36"/>
     <path d="M 40.578125 39.3125 
Q 47.65625 37.796875 51.625 33 
Q 55.609375 28.21875 55.609375 21.1875 
Q 55.609375 10.40625 48.1875 4.484375 
Q 40.765625 -1.421875 27.09375 -1.421875 
Q 22.515625 -1.421875 17.65625 -0.515625 
Q 12.796875 0.390625 7.625 2.203125 
L 7.625 11.71875 
Q 11.71875 9.328125 16.59375 8.109375 
Q 21.484375 6.890625 26.8125 6.890625 
Q 36.078125 6.890625 40.9375 10.546875 
Q 45.796875 14.203125 45.796875 21.1875 
Q 45.796875 27.640625 41.28125 31.265625 
Q 36.765625 34.90625 28.71875 34.90625 
L 20.21875 34.90625 
L 20.21875 43.015625 
L 29.109375 43.015625 
Q 36.375 43.015625 40.234375 45.921875 
Q 44.09375 48.828125 44.09375 54.296875 
Q 44.09375 59.90625 40.109375 62.90625 
Q 36.140625 65.921875 28.71875 65.921875 
Q 24.65625 65.921875 20.015625 65.03125 
Q 15.375 64.15625 9.8125 62.3125 
L 9.8125 71.09375 
Q 15.4375 72.65625 20.34375 73.4375 
Q 25.25 74.21875 29.59375 74.21875 
Q 40.828125 74.21875 47.359375 69.109375 
Q 53.90625 64.015625 53.90625 55.328125 
Q 53.90625 49.265625 50.4375 45.09375 
Q 46.96875 40.921875 40.578125 39.3125 
z
" id="DejaVuSans-33"/>
    </defs>
    <g transform="translate(524.352375 304.96)scale(0.216 -0.216)">
     <use xlink:href="#DejaVuSans-7e"/>
     <use x="83.789062" xlink:href="#DejaVuSans-45"/>
     <use x="146.972656" xlink:href="#DejaVuSans-43"/>
     <use x="216.796875" xlink:href="#DejaVuSans-46"/>
     <use x="274.316406" xlink:href="#DejaVuSans-50"/>
     <use x="334.619141" xlink:href="#DejaVuSans-5f"/>
     <use x="384.619141" xlink:href="#DejaVuSans-36"/>
     <use x="448.242188" xlink:href="#DejaVuSans-20"/>
     <use x="480.029297" xlink:href="#DejaVuSans-28"/>
     <use x="519.042969" xlink:href="#DejaVuSans-72"/>
     <use x="560.15625" xlink:href="#DejaVuSans-61"/>
     <use x="621.435547" xlink:href="#DejaVuSans-64"/>
     <use x="684.912109" xlink:href="#DejaVuSans-69"/>
     <use x="712.695312" xlink:href="#DejaVuSans-75"/>
     <use x="776.074219" xlink:href="#DejaVuSans-73"/>
     <use x="828.173828" xlink:href="#DejaVuSans-20"/>
     <use x="859.960938" xlink:href="#DejaVuSans-33"/>
     <use x="923.583984" xlink:href="#DejaVuSans-29"/>
    </g>
   </g>
  </g>
  <g id="axes_3">
   <g id="patch_108">
    <path d="M 127.565 797.56 
L 1129.06 797.56 
L 1129.06 580.48 
L 127.565 580.48 
z
" style="fill:#ffffff;"/>
   </g>
   <g id="patch_109">
    <path clip-path="url(#pe93b184f56)" d="M 173.0875 797.56 
L 191.2965 797.56 
L 191.2965 590.817143 
L 173.0875 590.817143 
z
" style="fill:#0072b2;opacity:0.4;"/>
   </g>
   <g id="patch_110">
    <path clip-path="url(#pe93b184f56)" d="M 191.2965 797.56 
L 209.5055 797.56 
L 209.5055 722.694934 
L 191.2965 722.694934 
z
" style="fill:#0072b2;opacity:0.4;"/>
   </g>
   <g id="patch_111">
    <path clip-path="url(#pe93b184f56)" d="M 209.5055 797.56 
L 227.7145 797.56 
L 227.7145 706.039181 
L 209.5055 706.039181 
z
" style="fill:#0072b2;opacity:0.4;"/>
   </g>
   <g id="patch_112">
    <path clip-path="url(#pe93b184f56)" d="M 227.7145 797.56 
L 245.9235 797.56 
L 245.9235 706.609457 
L 227.7145 706.609457 
z
" style="fill:#0072b2;opacity:0.4;"/>
   </g>
   <g id="patch_113">
    <path clip-path="url(#pe93b184f56)" d="M 245.9235 797.56 
L 264.1325 797.56 
L 264.1325 692.693015 
L 245.9235 692.693015 
z
" style="fill:#0072b2;opacity:0.4;"/>
   </g>
   <g id="patch_114">
    <path clip-path="url(#pe93b184f56)" d="M 264.1325 797.56 
L 282.3415 797.56 
L 282.3415 689.718925 
L 264.1325 689.718925 
z
" style="fill:#0072b2;opacity:0.4;"/>
   </g>
   <g id="patch_115">
    <path clip-path="url(#pe93b184f56)" d="M 282.3415 797.56 
L 300.5505 797.56 
L 300.5505 684.264418 
L 282.3415 684.264418 
z
" style="fill:#0072b2;opacity:0.4;"/>
   </g>
   <g id="patch_116">
    <path clip-path="url(#pe93b184f56)" d="M 300.5505 797.56 
L 318.7595 797.56 
L 318.7595 670.472813 
L 300.5505 670.472813 
z
" style="fill:#0072b2;opacity:0.4;"/>
   </g>
   <g id="patch_117">
    <path clip-path="url(#pe93b184f56)" d="M 318.7595 797.56 
L 336.9685 797.56 
L 336.9685 658.840313 
L 318.7595 658.840313 
z
" style="fill:#0072b2;opacity:0.4;"/>
   </g>
   <g id="patch_118">
    <path clip-path="url(#pe93b184f56)" d="M 336.9685 797.56 
L 355.1775 797.56 
L 355.1775 653.865291 
L 336.9685 653.865291 
z
" style="fill:#0072b2;opacity:0.4;"/>
   </g>
   <g id="patch_119">
    <path clip-path="url(#pe93b184f56)" d="M 355.1775 797.56 
L 373.3865 797.56 
L 373.3865 644.342955 
L 355.1775 644.342955 
z
" style="fill:#0072b2;opacity:0.4;"/>
   </g>
   <g id="patch_120">
    <path clip-path="url(#pe93b184f56)" d="M 373.3865 797.56 
L 391.5955 797.56 
L 391.5955 636.53925 
L 373.3865 636.53925 
z
" style="fill:#0072b2;opacity:0.4;"/>
   </g>
   <g id="patch_121">
    <path clip-path="url(#pe93b184f56)" d="M 391.5955 797.56 
L 409.8045 797.56 
L 409.8045 630.879756 
L 391.5955 630.879756 
z
" style="fill:#0072b2;opacity:0.4;"/>
   </g>
   <g id="patch_122">
    <path clip-path="url(#pe93b184f56)" d="M 409.8045 797.56 
L 428.0135 797.56 
L 428.0135 625.869269 
L 409.8045 625.869269 
z
" style="fill:#0072b2;opacity:0.4;"/>
   </g>
   <g id="patch_123">
    <path clip-path="url(#pe93b184f56)" d="M 428.0135 797.56 
L 446.2225 797.56 
L 446.2225 627.043159 
L 428.0135 627.043159 
z
" style="fill:#0072b2;opacity:0.4;"/>
   </g>
   <g id="patch_124">
    <path clip-path="url(#pe93b184f56)" d="M 446.2225 797.56 
L 464.4315 797.56 
L 464.4315 627.970212 
L 446.2225 627.970212 
z
" style="fill:#0072b2;opacity:0.4;"/>
   </g>
   <g id="patch_125">
    <path clip-path="url(#pe93b184f56)" d="M 464.4315 797.56 
L 482.6405 797.56 
L 482.6405 631.464927 
L 464.4315 631.464927 
z
" style="fill:#0072b2;opacity:0.4;"/>
   </g>
   <g id="patch_126">
    <path clip-path="url(#pe93b184f56)" d="M 482.6405 797.56 
L 500.8495 797.56 
L 500.8495 637.250677 
L 482.6405 637.250677 
z
" style="fill:#0072b2;opacity:0.4;"/>
   </g>
   <g id="patch_127">
    <path clip-path="url(#pe93b184f56)" d="M 500.8495 797.56 
L 519.0585 797.56 
L 519.0585 644.375583 
L 500.8495 644.375583 
z
" style="fill:#0072b2;opacity:0.4;"/>
   </g>
   <g id="patch_128">
    <path clip-path="url(#pe93b184f56)" d="M 519.0585 797.56 
L 537.2675 797.56 
L 537.2675 654.508625 
L 519.0585 654.508625 
z
" style="fill:#0072b2;opacity:0.4;"/>
   </g>
   <g id="patch_129">
    <path clip-path="url(#pe93b184f56)" d="M 537.2675 797.56 
L 555.4765 797.56 
L 555.4765 664.597691 
L 537.2675 664.597691 
z
" style="fill:#0072b2;opacity:0.4;"/>
   </g>
   <g id="patch_130">
    <path clip-path="url(#pe93b184f56)" d="M 555.4765 797.56 
L 573.6855 797.56 
L 573.6855 676.295446 
L 555.4765 676.295446 
z
" style="fill:#0072b2;opacity:0.4;"/>
   </g>
   <g id="patch_131">
    <path clip-path="url(#pe93b184f56)" d="M 573.6855 797.56 
L 591.8945 797.56 
L 591.8945 686.452604 
L 573.6855 686.452604 
z
" style="fill:#0072b2;opacity:0.4;"/>
   </g>
   <g id="patch_132">
    <path clip-path="url(#pe93b184f56)" d="M 591.8945 797.56 
L 610.1035 797.56 
L 610.1035 698.233348 
L 591.8945 698.233348 
z
" style="fill:#0072b2;opacity:0.4;"/>
   </g>
   <g id="patch_133">
    <path clip-path="url(#pe93b184f56)" d="M 610.1035 797.56 
L 628.3125 797.56 
L 628.3125 709.20549 
L 610.1035 709.20549 
z
" style="fill:#0072b2;opacity:0.4;"/>
   </g>
   <g id="patch_134">
    <path clip-path="url(#pe93b184f56)" d="M 628.3125 797.56 
L 646.5215 797.56 
L 646.5215 719.123615 
L 628.3125 719.123615 
z
" style="fill:#0072b2;opacity:0.4;"/>
   </g>
   <g id="patch_135">
    <path clip-path="url(#pe93b184f56)" d="M 646.5215 797.56 
L 664.7305 797.56 
L 664.7305 729.226157 
L 646.5215 729.226157 
z
" style="fill:#0072b2;opacity:0.4;"/>
   </g>
   <g id="patch_136">
    <path clip-path="url(#pe93b184f56)" d="M 664.7305 797.56 
L 682.9395 797.56 
L 682.9395 737.595883 
L 664.7305 737.595883 
z
" style="fill:#0072b2;opacity:0.4;"/>
   </g>
   <g id="patch_137">
    <path clip-path="url(#pe93b184f56)" d="M 682.9395 797.56 
L 701.1485 797.56 
L 701.1485 746.311746 
L 682.9395 746.311746 
z
" style="fill:#0072b2;opacity:0.4;"/>
   </g>
   <g id="patch_138">
    <path clip-path="url(#pe93b184f56)" d="M 701.1485 797.56 
L 719.3575 797.56 
L 719.3575 753.523186 
L 701.1485 753.523186 
z
" style="fill:#0072b2;opacity:0.4;"/>
   </g>
   <g id="patch_139">
    <path clip-path="url(#pe93b184f56)" d="M 719.3575 797.56 
L 737.5665 797.56 
L 737.5665 759.848003 
L 719.3575 759.848003 
z
" style="fill:#0072b2;opacity:0.4;"/>
   </g>
   <g id="patch_140">
    <path clip-path="url(#pe93b184f56)" d="M 737.5665 797.56 
L 755.7755 797.56 
L 755.7755 765.769939 
L 737.5665 765.769939 
z
" style="fill:#0072b2;opacity:0.4;"/>
   </g>
   <g id="patch_141">
    <path clip-path="url(#pe93b184f56)" d="M 755.7755 797.56 
L 773.9845 797.56 
L 773.9845 770.314416 
L 755.7755 770.314416 
z
" style="fill:#0072b2;opacity:0.4;"/>
   </g>
   <g id="patch_142">
    <path clip-path="url(#pe93b184f56)" d="M 773.9845 797.56 
L 792.1935 797.56 
L 792.1935 774.646103 
L 773.9845 774.646103 
z
" style="fill:#0072b2;opacity:0.4;"/>
   </g>
   <g id="patch_143">
    <path clip-path="url(#pe93b184f56)" d="M 792.1935 797.56 
L 810.4025 797.56 
L 810.4025 778.486247 
L 792.1935 778.486247 
z
" style="fill:#0072b2;opacity:0.4;"/>
   </g>
   <g id="patch_144">
    <path clip-path="url(#pe93b184f56)" d="M 810.4025 797.56 
L 828.6115 797.56 
L 828.6115 781.357488 
L 810.4025 781.357488 
z
" style="fill:#0072b2;opacity:0.4;"/>
   </g>
   <g id="patch_145">
    <path clip-path="url(#pe93b184f56)" d="M 828.6115 797.56 
L 846.8205 797.56 
L 846.8205 784.085451 
L 828.6115 784.085451 
z
" style="fill:#0072b2;opacity:0.4;"/>
   </g>
   <g id="patch_146">
    <path clip-path="url(#pe93b184f56)" d="M 846.8205 797.56 
L 865.0295 797.56 
L 865.0295 786.621904 
L 846.8205 786.621904 
z
" style="fill:#0072b2;opacity:0.4;"/>
   </g>
   <g id="patch_147">
    <path clip-path="url(#pe93b184f56)" d="M 865.0295 797.56 
L 883.2385 797.56 
L 883.2385 788.156117 
L 865.0295 788.156117 
z
" style="fill:#0072b2;opacity:0.4;"/>
   </g>
   <g id="patch_148">
    <path clip-path="url(#pe93b184f56)" d="M 883.2385 797.56 
L 901.4475 797.56 
L 901.4475 790.025119 
L 883.2385 790.025119 
z
" style="fill:#0072b2;opacity:0.4;"/>
   </g>
   <g id="patch_149">
    <path clip-path="url(#pe93b184f56)" d="M 901.4475 797.56 
L 919.6565 797.56 
L 919.6565 791.523158 
L 901.4475 791.523158 
z
" style="fill:#0072b2;opacity:0.4;"/>
   </g>
   <g id="patch_150">
    <path clip-path="url(#pe93b184f56)" d="M 919.6565 797.56 
L 937.8655 797.56 
L 937.8655 792.523979 
L 919.6565 792.523979 
z
" style="fill:#0072b2;opacity:0.4;"/>
   </g>
   <g id="patch_151">
    <path clip-path="url(#pe93b184f56)" d="M 937.8655 797.56 
L 956.0745 797.56 
L 956.0745 793.419114 
L 937.8655 793.419114 
z
" style="fill:#0072b2;opacity:0.4;"/>
   </g>
   <g id="patch_152">
    <path clip-path="url(#pe93b184f56)" d="M 956.0745 797.56 
L 974.2835 797.56 
L 974.2835 794.349714 
L 956.0745 794.349714 
z
" style="fill:#0072b2;opacity:0.4;"/>
   </g>
   <g id="patch_153">
    <path clip-path="url(#pe93b184f56)" d="M 974.2835 797.56 
L 992.4925 797.56 
L 992.4925 794.797991 
L 974.2835 794.797991 
z
" style="fill:#0072b2;opacity:0.4;"/>
   </g>
   <g id="patch_154">
    <path clip-path="url(#pe93b184f56)" d="M 992.4925 797.56 
L 1010.7015 797.56 
L 1010.7015 795.385999 
L 992.4925 795.385999 
z
" style="fill:#0072b2;opacity:0.4;"/>
   </g>
   <g id="patch_155">
    <path clip-path="url(#pe93b184f56)" d="M 1010.7015 797.56 
L 1028.9105 797.56 
L 1028.9105 795.713695 
L 1010.7015 795.713695 
z
" style="fill:#0072b2;opacity:0.4;"/>
   </g>
   <g id="patch_156">
    <path clip-path="url(#pe93b184f56)" d="M 1028.9105 797.56 
L 1047.1195 797.56 
L 1047.1195 796.064089 
L 1028.9105 796.064089 
z
" style="fill:#0072b2;opacity:0.4;"/>
   </g>
   <g id="patch_157">
    <path clip-path="url(#pe93b184f56)" d="M 1047.1195 797.56 
L 1065.3285 797.56 
L 1065.3285 796.333622 
L 1047.1195 796.333622 
z
" style="fill:#0072b2;opacity:0.4;"/>
   </g>
   <g id="patch_158">
    <path clip-path="url(#pe93b184f56)" d="M 1065.3285 797.56 
L 1083.5375 797.56 
L 1083.5375 796.127926 
L 1065.3285 796.127926 
z
" style="fill:#0072b2;opacity:0.4;"/>
   </g>
   <g id="matplotlib.axis_3">
    <g id="xtick_1">
     <g id="line2d_11">
      <defs>
       <path d="M 0 0 
L 0 3.5 
" id="m394051a80f" style="stroke:#000000;stroke-width:0.8;"/>
      </defs>
      <g>
       <use style="stroke:#000000;stroke-width:0.8;" x="173.0875" xlink:href="#m394051a80f" y="797.56"/>
      </g>
     </g>
     <g id="text_15">
      <!-- 0 -->
      <g transform="translate(167.36125 818.237188)scale(0.18 -0.18)">
       <use xlink:href="#DejaVuSans-30"/>
      </g>
     </g>
    </g>
    <g id="xtick_2">
     <g id="line2d_12">
      <g>
       <use style="stroke:#000000;stroke-width:0.8;" x="355.1775" xlink:href="#m394051a80f" y="797.56"/>
      </g>
     </g>
     <g id="text_16">
      <!-- 20 -->
      <g transform="translate(343.725 818.237188)scale(0.18 -0.18)">
       <use xlink:href="#DejaVuSans-32"/>
       <use x="63.623047" xlink:href="#DejaVuSans-30"/>
      </g>
     </g>
    </g>
    <g id="xtick_3">
     <g id="line2d_13">
      <g>
       <use style="stroke:#000000;stroke-width:0.8;" x="537.2675" xlink:href="#m394051a80f" y="797.56"/>
      </g>
     </g>
     <g id="text_17">
      <!-- 40 -->
      <g transform="translate(525.815 818.237188)scale(0.18 -0.18)">
       <use xlink:href="#DejaVuSans-34"/>
       <use x="63.623047" xlink:href="#DejaVuSans-30"/>
      </g>
     </g>
    </g>
    <g id="xtick_4">
     <g id="line2d_14">
      <g>
       <use style="stroke:#000000;stroke-width:0.8;" x="719.3575" xlink:href="#m394051a80f" y="797.56"/>
      </g>
     </g>
     <g id="text_18">
      <!-- 60 -->
      <g transform="translate(707.905 818.237188)scale(0.18 -0.18)">
       <use xlink:href="#DejaVuSans-36"/>
       <use x="63.623047" xlink:href="#DejaVuSans-30"/>
      </g>
     </g>
    </g>
    <g id="xtick_5">
     <g id="line2d_15">
      <g>
       <use style="stroke:#000000;stroke-width:0.8;" x="901.4475" xlink:href="#m394051a80f" y="797.56"/>
      </g>
     </g>
     <g id="text_19">
      <!-- 80 -->
      <defs>
       <path d="M 31.78125 34.625 
Q 24.75 34.625 20.71875 30.859375 
Q 16.703125 27.09375 16.703125 20.515625 
Q 16.703125 13.921875 20.71875 10.15625 
Q 24.75 6.390625 31.78125 6.390625 
Q 38.8125 6.390625 42.859375 10.171875 
Q 46.921875 13.96875 46.921875 20.515625 
Q 46.921875 27.09375 42.890625 30.859375 
Q 38.875 34.625 31.78125 34.625 
z
M 21.921875 38.8125 
Q 15.578125 40.375 12.03125 44.71875 
Q 8.5 49.078125 8.5 55.328125 
Q 8.5 64.0625 14.71875 69.140625 
Q 20.953125 74.21875 31.78125 74.21875 
Q 42.671875 74.21875 48.875 69.140625 
Q 55.078125 64.0625 55.078125 55.328125 
Q 55.078125 49.078125 51.53125 44.71875 
Q 48 40.375 41.703125 38.8125 
Q 48.828125 37.15625 52.796875 32.3125 
Q 56.78125 27.484375 56.78125 20.515625 
Q 56.78125 9.90625 50.3125 4.234375 
Q 43.84375 -1.421875 31.78125 -1.421875 
Q 19.734375 -1.421875 13.25 4.234375 
Q 6.78125 9.90625 6.78125 20.515625 
Q 6.78125 27.484375 10.78125 32.3125 
Q 14.796875 37.15625 21.921875 38.8125 
z
M 18.3125 54.390625 
Q 18.3125 48.734375 21.84375 45.5625 
Q 25.390625 42.390625 31.78125 42.390625 
Q 38.140625 42.390625 41.71875 45.5625 
Q 45.3125 48.734375 45.3125 54.390625 
Q 45.3125 60.0625 41.71875 63.234375 
Q 38.140625 66.40625 31.78125 66.40625 
Q 25.390625 66.40625 21.84375 63.234375 
Q 18.3125 60.0625 18.3125 54.390625 
z
" id="DejaVuSans-38"/>
      </defs>
      <g transform="translate(889.995 818.237188)scale(0.18 -0.18)">
       <use xlink:href="#DejaVuSans-38"/>
       <use x="63.623047" xlink:href="#DejaVuSans-30"/>
      </g>
     </g>
    </g>
    <g id="xtick_6">
     <g id="line2d_16">
      <g>
       <use style="stroke:#000000;stroke-width:0.8;" x="1083.5375" xlink:href="#m394051a80f" y="797.56"/>
      </g>
     </g>
     <g id="text_20">
      <!-- 100 -->
      <g transform="translate(1066.35875 818.237188)scale(0.18 -0.18)">
       <use xlink:href="#DejaVuSans-31"/>
       <use x="63.623047" xlink:href="#DejaVuSans-30"/>
       <use x="127.246094" xlink:href="#DejaVuSans-30"/>
      </g>
     </g>
    </g>
    <g id="text_21">
     <!-- Number of "unseen" (not in train) substructures -->
     <defs>
      <path d="M 17.921875 72.90625 
L 17.921875 45.796875 
L 9.625 45.796875 
L 9.625 72.90625 
z
M 36.375 72.90625 
L 36.375 45.796875 
L 28.078125 45.796875 
L 28.078125 72.90625 
z
" id="DejaVuSans-22"/>
      <path d="M 54.890625 33.015625 
L 54.890625 0 
L 45.90625 0 
L 45.90625 32.71875 
Q 45.90625 40.484375 42.875 44.328125 
Q 39.84375 48.1875 33.796875 48.1875 
Q 26.515625 48.1875 22.3125 43.546875 
Q 18.109375 38.921875 18.109375 30.90625 
L 18.109375 0 
L 9.078125 0 
L 9.078125 54.6875 
L 18.109375 54.6875 
L 18.109375 46.1875 
Q 21.34375 51.125 25.703125 53.5625 
Q 30.078125 56 35.796875 56 
Q 45.21875 56 50.046875 50.171875 
Q 54.890625 44.34375 54.890625 33.015625 
z
" id="DejaVuSans-6e"/>
      <path d="M 18.3125 70.21875 
L 18.3125 54.6875 
L 36.8125 54.6875 
L 36.8125 47.703125 
L 18.3125 47.703125 
L 18.3125 18.015625 
Q 18.3125 11.328125 20.140625 9.421875 
Q 21.96875 7.515625 27.59375 7.515625 
L 36.8125 7.515625 
L 36.8125 0 
L 27.59375 0 
Q 17.1875 0 13.234375 3.875 
Q 9.28125 7.765625 9.28125 18.015625 
L 9.28125 47.703125 
L 2.6875 47.703125 
L 2.6875 54.6875 
L 9.28125 54.6875 
L 9.28125 70.21875 
z
" id="DejaVuSans-74"/>
     </defs>
     <g transform="translate(412.422188 839.657813)scale(0.18 -0.18)">
      <use xlink:href="#DejaVuSans-4e"/>
      <use x="74.804688" xlink:href="#DejaVuSans-75"/>
      <use x="138.183594" xlink:href="#DejaVuSans-6d"/>
      <use x="235.595703" xlink:href="#DejaVuSans-62"/>
      <use x="299.072266" xlink:href="#DejaVuSans-65"/>
      <use x="360.595703" xlink:href="#DejaVuSans-72"/>
      <use x="401.708984" xlink:href="#DejaVuSans-20"/>
      <use x="433.496094" xlink:href="#DejaVuSans-6f"/>
      <use x="494.677734" xlink:href="#DejaVuSans-66"/>
      <use x="529.882812" xlink:href="#DejaVuSans-20"/>
      <use x="561.669922" xlink:href="#DejaVuSans-22"/>
      <use x="607.666016" xlink:href="#DejaVuSans-75"/>
      <use x="671.044922" xlink:href="#DejaVuSans-6e"/>
      <use x="734.423828" xlink:href="#DejaVuSans-73"/>
      <use x="786.523438" xlink:href="#DejaVuSans-65"/>
      <use x="848.046875" xlink:href="#DejaVuSans-65"/>
      <use x="909.570312" xlink:href="#DejaVuSans-6e"/>
      <use x="972.949219" xlink:href="#DejaVuSans-22"/>
      <use x="1018.945312" xlink:href="#DejaVuSans-20"/>
      <use x="1050.732422" xlink:href="#DejaVuSans-28"/>
      <use x="1089.746094" xlink:href="#DejaVuSans-6e"/>
      <use x="1153.125" xlink:href="#DejaVuSans-6f"/>
      <use x="1214.306641" xlink:href="#DejaVuSans-74"/>
      <use x="1253.515625" xlink:href="#DejaVuSans-20"/>
      <use x="1285.302734" xlink:href="#DejaVuSans-69"/>
      <use x="1313.085938" xlink:href="#DejaVuSans-6e"/>
      <use x="1376.464844" xlink:href="#DejaVuSans-20"/>
      <use x="1408.251953" xlink:href="#DejaVuSans-74"/>
      <use x="1447.460938" xlink:href="#DejaVuSans-72"/>
      <use x="1488.574219" xlink:href="#DejaVuSans-61"/>
      <use x="1549.853516" xlink:href="#DejaVuSans-69"/>
      <use x="1577.636719" xlink:href="#DejaVuSans-6e"/>
      <use x="1641.015625" xlink:href="#DejaVuSans-29"/>
      <use x="1680.029297" xlink:href="#DejaVuSans-20"/>
      <use x="1711.816406" xlink:href="#DejaVuSans-73"/>
      <use x="1763.916016" xlink:href="#DejaVuSans-75"/>
      <use x="1827.294922" xlink:href="#DejaVuSans-62"/>
      <use x="1890.771484" xlink:href="#DejaVuSans-73"/>
      <use x="1942.871094" xlink:href="#DejaVuSans-74"/>
      <use x="1982.080078" xlink:href="#DejaVuSans-72"/>
      <use x="2023.193359" xlink:href="#DejaVuSans-75"/>
      <use x="2086.572266" xlink:href="#DejaVuSans-63"/>
      <use x="2141.552734" xlink:href="#DejaVuSans-74"/>
      <use x="2180.761719" xlink:href="#DejaVuSans-75"/>
      <use x="2244.140625" xlink:href="#DejaVuSans-72"/>
      <use x="2285.222656" xlink:href="#DejaVuSans-65"/>
      <use x="2346.746094" xlink:href="#DejaVuSans-73"/>
     </g>
    </g>
   </g>
   <g id="matplotlib.axis_4">
    <g id="ytick_11">
     <g id="line2d_17">
      <g>
       <use style="stroke:#000000;stroke-width:0.8;" x="127.565" xlink:href="#md53e6480f9" y="797.56"/>
      </g>
     </g>
     <g id="text_22">
      <!-- 0 -->
      <g transform="translate(109.1125 804.398594)scale(0.18 -0.18)">
       <use xlink:href="#DejaVuSans-30"/>
      </g>
     </g>
    </g>
    <g id="ytick_12">
     <g id="line2d_18">
      <g>
       <use style="stroke:#000000;stroke-width:0.8;" x="127.565" xlink:href="#md53e6480f9" y="726.630124"/>
      </g>
     </g>
     <g id="text_23">
      <!-- 100000 -->
      <g transform="translate(51.85 733.468717)scale(0.18 -0.18)">
       <use xlink:href="#DejaVuSans-31"/>
       <use x="63.623047" xlink:href="#DejaVuSans-30"/>
       <use x="127.246094" xlink:href="#DejaVuSans-30"/>
       <use x="190.869141" xlink:href="#DejaVuSans-30"/>
       <use x="254.492188" xlink:href="#DejaVuSans-30"/>
       <use x="318.115234" xlink:href="#DejaVuSans-30"/>
      </g>
     </g>
    </g>
    <g id="ytick_13">
     <g id="line2d_19">
      <g>
       <use style="stroke:#000000;stroke-width:0.8;" x="127.565" xlink:href="#md53e6480f9" y="655.700247"/>
      </g>
     </g>
     <g id="text_24">
      <!-- 200000 -->
      <g transform="translate(51.85 662.538841)scale(0.18 -0.18)">
       <use xlink:href="#DejaVuSans-32"/>
       <use x="63.623047" xlink:href="#DejaVuSans-30"/>
       <use x="127.246094" xlink:href="#DejaVuSans-30"/>
       <use x="190.869141" xlink:href="#DejaVuSans-30"/>
       <use x="254.492188" xlink:href="#DejaVuSans-30"/>
       <use x="318.115234" xlink:href="#DejaVuSans-30"/>
      </g>
     </g>
    </g>
    <g id="ytick_14">
     <g id="line2d_20">
      <g>
       <use style="stroke:#000000;stroke-width:0.8;" x="127.565" xlink:href="#md53e6480f9" y="584.770371"/>
      </g>
     </g>
     <g id="text_25">
      <!-- 300000 -->
      <g transform="translate(51.85 591.608965)scale(0.18 -0.18)">
       <use xlink:href="#DejaVuSans-33"/>
       <use x="63.623047" xlink:href="#DejaVuSans-30"/>
       <use x="127.246094" xlink:href="#DejaVuSans-30"/>
       <use x="190.869141" xlink:href="#DejaVuSans-30"/>
       <use x="254.492188" xlink:href="#DejaVuSans-30"/>
       <use x="318.115234" xlink:href="#DejaVuSans-30"/>
      </g>
     </g>
    </g>
    <g id="text_26">
     <!-- Number of molecules -->
     <g transform="translate(44.106562 785.260938)rotate(-90)scale(0.18 -0.18)">
      <use xlink:href="#DejaVuSans-4e"/>
      <use x="74.804688" xlink:href="#DejaVuSans-75"/>
      <use x="138.183594" xlink:href="#DejaVuSans-6d"/>
      <use x="235.595703" xlink:href="#DejaVuSans-62"/>
      <use x="299.072266" xlink:href="#DejaVuSans-65"/>
      <use x="360.595703" xlink:href="#DejaVuSans-72"/>
      <use x="401.708984" xlink:href="#DejaVuSans-20"/>
      <use x="433.496094" xlink:href="#DejaVuSans-6f"/>
      <use x="494.677734" xlink:href="#DejaVuSans-66"/>
      <use x="529.882812" xlink:href="#DejaVuSans-20"/>
      <use x="561.669922" xlink:href="#DejaVuSans-6d"/>
      <use x="659.082031" xlink:href="#DejaVuSans-6f"/>
      <use x="720.263672" xlink:href="#DejaVuSans-6c"/>
      <use x="748.046875" xlink:href="#DejaVuSans-65"/>
      <use x="809.570312" xlink:href="#DejaVuSans-63"/>
      <use x="864.550781" xlink:href="#DejaVuSans-75"/>
      <use x="927.929688" xlink:href="#DejaVuSans-6c"/>
      <use x="955.712891" xlink:href="#DejaVuSans-65"/>
      <use x="1017.236328" xlink:href="#DejaVuSans-73"/>
     </g>
    </g>
   </g>
   <g id="patch_159">
    <path d="M 127.565 797.56 
L 127.565 580.48 
" style="fill:none;stroke:#000000;stroke-linecap:square;stroke-linejoin:miter;stroke-width:0.8;"/>
   </g>
   <g id="patch_160">
    <path d="M 127.565 797.56 
L 1129.06 797.56 
" style="fill:none;stroke:#000000;stroke-linecap:square;stroke-linejoin:miter;stroke-width:0.8;"/>
   </g>
   <g id="text_27">
    <!-- ~ECFP_Infinite (unlimited radius) -->
    <defs>
     <path d="M 9.8125 72.90625 
L 19.671875 72.90625 
L 19.671875 0 
L 9.8125 0 
z
" id="DejaVuSans-49"/>
    </defs>
    <g transform="translate(449.59275 574.48)scale(0.216 -0.216)">
     <use xlink:href="#DejaVuSans-7e"/>
     <use x="83.789062" xlink:href="#DejaVuSans-45"/>
     <use x="146.972656" xlink:href="#DejaVuSans-43"/>
     <use x="216.796875" xlink:href="#DejaVuSans-46"/>
     <use x="274.316406" xlink:href="#DejaVuSans-50"/>
     <use x="334.619141" xlink:href="#DejaVuSans-5f"/>
     <use x="384.619141" xlink:href="#DejaVuSans-49"/>
     <use x="414.111328" xlink:href="#DejaVuSans-6e"/>
     <use x="477.490234" xlink:href="#DejaVuSans-66"/>
     <use x="512.695312" xlink:href="#DejaVuSans-69"/>
     <use x="540.478516" xlink:href="#DejaVuSans-6e"/>
     <use x="603.857422" xlink:href="#DejaVuSans-69"/>
     <use x="631.640625" xlink:href="#DejaVuSans-74"/>
     <use x="670.849609" xlink:href="#DejaVuSans-65"/>
     <use x="732.373047" xlink:href="#DejaVuSans-20"/>
     <use x="764.160156" xlink:href="#DejaVuSans-28"/>
     <use x="803.173828" xlink:href="#DejaVuSans-75"/>
     <use x="866.552734" xlink:href="#DejaVuSans-6e"/>
     <use x="929.931641" xlink:href="#DejaVuSans-6c"/>
     <use x="957.714844" xlink:href="#DejaVuSans-69"/>
     <use x="985.498047" xlink:href="#DejaVuSans-6d"/>
     <use x="1082.910156" xlink:href="#DejaVuSans-69"/>
     <use x="1110.693359" xlink:href="#DejaVuSans-74"/>
     <use x="1149.902344" xlink:href="#DejaVuSans-65"/>
     <use x="1211.425781" xlink:href="#DejaVuSans-64"/>
     <use x="1274.902344" xlink:href="#DejaVuSans-20"/>
     <use x="1306.689453" xlink:href="#DejaVuSans-72"/>
     <use x="1347.802734" xlink:href="#DejaVuSans-61"/>
     <use x="1409.082031" xlink:href="#DejaVuSans-64"/>
     <use x="1472.558594" xlink:href="#DejaVuSans-69"/>
     <use x="1500.341797" xlink:href="#DejaVuSans-75"/>
     <use x="1563.720703" xlink:href="#DejaVuSans-73"/>
     <use x="1615.820312" xlink:href="#DejaVuSans-29"/>
    </g>
   </g>
  </g>
 </g>
 <defs>
  <clipPath id="pd41b95942b">
   <rect height="217.08" width="1001.495" x="127.565" y="41.44"/>
  </clipPath>
  <clipPath id="pe632f43cac">
   <rect height="217.08" width="1001.495" x="127.565" y="310.96"/>
  </clipPath>
  <clipPath id="pe93b184f56">
   <rect height="217.08" width="1001.495" x="127.565" y="580.48"/>
  </clipPath>
 </defs>
</svg>
